<?xml version="1.0" encoding="UTF-8"?>
<!--Generator: Apple Native CoreSVG 175.5-->
<!DOCTYPE svg
PUBLIC "-//W3C//DTD SVG 1.1//EN"
       "http://www.w3.org/Graphics/SVG/1.1/DTD/svg11.dtd">
<svg version="1.1" xmlns="http://www.w3.org/2000/svg" xmlns:xlink="http://www.w3.org/1999/xlink" width="3300" height="2200">
 <!--glyph: "", point size: 100.0, font version: "18.0d12e2", template writer version: "101"-->
 <g id="Notes">
  <rect height="2200" id="artboard" style="fill:white;opacity:1" width="3300" x="0" y="0"/>
  <line style="fill:none;stroke:black;opacity:1;stroke-width:0.5;" x1="263" x2="3036" y1="292" y2="292"/>
  <text style="stroke:none;fill:black;font-family:sans-serif;font-size:13;font-weight:bold;" transform="matrix(1 0 0 1 263 322)">Weight/Scale Variations</text>
  <text style="stroke:none;fill:black;font-family:sans-serif;font-size:13;text-anchor:middle;" transform="matrix(1 0 0 1 559.711 322)">Ultralight</text>
  <text style="stroke:none;fill:black;font-family:sans-serif;font-size:13;text-anchor:middle;" transform="matrix(1 0 0 1 856.422 322)">Thin</text>
  <text style="stroke:none;fill:black;font-family:sans-serif;font-size:13;text-anchor:middle;" transform="matrix(1 0 0 1 1153.13 322)">Light</text>
  <text style="stroke:none;fill:black;font-family:sans-serif;font-size:13;text-anchor:middle;" transform="matrix(1 0 0 1 1449.84 322)">Regular</text>
  <text style="stroke:none;fill:black;font-family:sans-serif;font-size:13;text-anchor:middle;" transform="matrix(1 0 0 1 1746.56 322)">Medium</text>
  <text style="stroke:none;fill:black;font-family:sans-serif;font-size:13;text-anchor:middle;" transform="matrix(1 0 0 1 2043.27 322)">Semibold</text>
  <text style="stroke:none;fill:black;font-family:sans-serif;font-size:13;text-anchor:middle;" transform="matrix(1 0 0 1 2339.98 322)">Bold</text>
  <text style="stroke:none;fill:black;font-family:sans-serif;font-size:13;text-anchor:middle;" transform="matrix(1 0 0 1 2636.69 322)">Heavy</text>
  <text style="stroke:none;fill:black;font-family:sans-serif;font-size:13;text-anchor:middle;" transform="matrix(1 0 0 1 2933.4 322)">Black</text>
  <line style="fill:none;stroke:black;opacity:1;stroke-width:0.5;" x1="263" x2="3036" y1="1903" y2="1903"/>
  <g transform="matrix(1 0 0 1 263 1933)">
   <path d="M9.24805 0.830078C13.5547 0.830078 17.1387-2.74414 17.1387-7.05078C17.1387-11.3574 13.5449-14.9316 9.23828-14.9316C4.94141-14.9316 1.36719-11.3574 1.36719-7.05078C1.36719-2.74414 4.95117 0.830078 9.24805 0.830078ZM9.24805-0.654297C5.70312-0.654297 2.87109-3.49609 2.87109-7.05078C2.87109-10.6055 5.69336-13.4473 9.23828-13.4473C12.793-13.4473 15.6445-10.6055 15.6445-7.05078C15.6445-3.49609 12.8027-0.654297 9.24805-0.654297ZM5.6543-7.05078C5.6543-6.62109 5.95703-6.32812 6.40625-6.32812L8.50586-6.32812L8.50586-4.20898C8.50586-3.76953 8.79883-3.4668 9.22852-3.4668C9.67773-3.4668 9.9707-3.76953 9.9707-4.20898L9.9707-6.32812L12.0898-6.32812C12.5293-6.32812 12.832-6.62109 12.832-7.05078C12.832-7.49023 12.5293-7.79297 12.0898-7.79297L9.9707-7.79297L9.9707-9.90234C9.9707-10.3516 9.67773-10.6543 9.22852-10.6543C8.79883-10.6543 8.50586-10.3516 8.50586-9.90234L8.50586-7.79297L6.40625-7.79297C5.95703-7.79297 5.6543-7.49023 5.6543-7.05078Z"/>
  </g>
  <g transform="matrix(1 0 0 1 281.867 1933)">
   <path d="M11.709 2.91016C17.1582 2.91016 21.6699-1.61133 21.6699-7.05078C21.6699-12.5 17.1484-17.0117 11.6992-17.0117C6.25977-17.0117 1.74805-12.5 1.74805-7.05078C1.74805-1.61133 6.26953 2.91016 11.709 2.91016ZM11.709 1.25C7.09961 1.25 3.41797-2.44141 3.41797-7.05078C3.41797-11.6602 7.08984-15.3516 11.6992-15.3516C16.3086-15.3516 20.0098-11.6602 20.0098-7.05078C20.0098-2.44141 16.3184 1.25 11.709 1.25ZM7.17773-7.05078C7.17773-6.57227 7.50977-6.25 8.00781-6.25L10.8789-6.25L10.8789-3.36914C10.8789-2.88086 11.2109-2.53906 11.6895-2.53906C12.1777-2.53906 12.5195-2.87109 12.5195-3.36914L12.5195-6.25L15.4004-6.25C15.8887-6.25 16.2305-6.57227 16.2305-7.05078C16.2305-7.53906 15.8887-7.88086 15.4004-7.88086L12.5195-7.88086L12.5195-10.752C12.5195-11.25 12.1777-11.5918 11.6895-11.5918C11.2109-11.5918 10.8789-11.25 10.8789-10.752L10.8789-7.88086L8.00781-7.88086C7.50977-7.88086 7.17773-7.53906 7.17773-7.05078Z"/>
  </g>
  <g transform="matrix(1 0 0 1 305.646 1933)">
   <path d="M14.9707 5.66406C21.9336 5.66406 27.6953-0.0976562 27.6953-7.05078C27.6953-14.0137 21.9238-19.7754 14.9609-19.7754C8.00781-19.7754 2.25586-14.0137 2.25586-7.05078C2.25586-0.0976562 8.01758 5.66406 14.9707 5.66406ZM14.9707 3.84766C8.93555 3.84766 4.08203-1.01562 4.08203-7.05078C4.08203-13.0957 8.92578-17.9492 14.9609-17.9492C21.0059-17.9492 25.8691-13.0957 25.8691-7.05078C25.8691-1.01562 21.0156 3.84766 14.9707 3.84766ZM9.19922-7.05078C9.19922-6.5332 9.57031-6.17188 10.1172-6.17188L14.0625-6.17188L14.0625-2.2168C14.0625-1.67969 14.4336-1.29883 14.9512-1.29883C15.4883-1.29883 15.8594-1.66992 15.8594-2.2168L15.8594-6.17188L19.8145-6.17188C20.3516-6.17188 20.7324-6.5332 20.7324-7.05078C20.7324-7.59766 20.3613-7.96875 19.8145-7.96875L15.8594-7.96875L15.8594-11.9141C15.8594-12.4609 15.4883-12.8418 14.9512-12.8418C14.4336-12.8418 14.0625-12.4609 14.0625-11.9141L14.0625-7.96875L10.1172-7.96875C9.57031-7.96875 9.19922-7.59766 9.19922-7.05078Z"/>
  </g>
  <text style="stroke:none;fill:black;font-family:sans-serif;font-size:13;font-weight:bold;" transform="matrix(1 0 0 1 263 1953)">Design Variations</text>
  <text style="stroke:none;fill:black;font-family:sans-serif;font-size:13;" transform="matrix(1 0 0 1 263 1971)">Symbols are supported in up to nine weights and three scales.</text>
  <text style="stroke:none;fill:black;font-family:sans-serif;font-size:13;" transform="matrix(1 0 0 1 263 1989)">For optimal layout with text and other symbols, vertically align</text>
  <text style="stroke:none;fill:black;font-family:sans-serif;font-size:13;" transform="matrix(1 0 0 1 263 2007)">symbols with the adjacent text.</text>
  <line style="fill:none;stroke:#00AEEF;stroke-width:0.5;opacity:1.0;" x1="776" x2="776" y1="1919" y2="1933"/>
  <g transform="matrix(1 0 0 1 776 1933)">
   <path d="M3.31055 0.15625C3.82812 0.15625 4.08203-0.0390625 4.26758-0.585938L5.52734-4.0332L11.2891-4.0332L12.5488-0.585938C12.7344-0.0390625 12.9883 0.15625 13.4961 0.15625C14.0137 0.15625 14.3457-0.15625 14.3457-0.644531C14.3457-0.810547 14.3164-0.966797 14.2383-1.17188L9.6582-13.3691C9.43359-13.9648 9.0332-14.2676 8.4082-14.2676C7.80273-14.2676 7.39258-13.9746 7.17773-13.3789L2.59766-1.16211C2.51953-0.957031 2.49023-0.800781 2.49023-0.634766C2.49023-0.146484 2.80273 0.15625 3.31055 0.15625ZM6.00586-5.51758L8.37891-12.0898L8.42773-12.0898L10.8008-5.51758Z"/>
  </g>
  <line style="fill:none;stroke:#00AEEF;stroke-width:0.5;opacity:1.0;" x1="793.197" x2="793.197" y1="1919" y2="1933"/>
  <text style="stroke:none;fill:black;font-family:sans-serif;font-size:13;font-weight:bold;" transform="matrix(1 0 0 1 776 1953)">Margins</text>
  <text style="stroke:none;fill:black;font-family:sans-serif;font-size:13;" transform="matrix(1 0 0 1 776 1971)">Leading and trailing margins on the left and right side of each symbol</text>
  <text style="stroke:none;fill:black;font-family:sans-serif;font-size:13;" transform="matrix(1 0 0 1 776 1989)">can be adjusted by modifying the x-location of the margin guidelines.</text>
  <text style="stroke:none;fill:black;font-family:sans-serif;font-size:13;" transform="matrix(1 0 0 1 776 2007)">Modifications are automatically applied proportionally to all</text>
  <text style="stroke:none;fill:black;font-family:sans-serif;font-size:13;" transform="matrix(1 0 0 1 776 2025)">scales and weights.</text>
  <g transform="matrix(1 0 0 1 1289 1933)">
   <path d="M2.8418 1.86523L4.54102 3.57422C5.40039 4.44336 6.38672 4.38477 7.31445 3.35938L18.0078-8.42773L17.041-9.4043L6.42578 2.27539C6.07422 2.67578 5.74219 2.77344 5.27344 2.30469L4.10156 1.14258C3.63281 0.683594 3.74023 0.341797 4.14062-0.0195312L15.6152-10.8203L14.6387-11.7871L3.04688-0.898438C2.06055 0.0195312 1.98242 0.996094 2.8418 1.86523ZM9.25781-16.3281C8.83789-15.918 8.80859-15.3418 9.04297-14.9512C9.27734-14.5898 9.73633-14.3555 10.3809-14.5215C11.8457-14.8633 13.3691-14.9219 14.7949-13.9844L14.209-12.5293C13.8672-11.6992 14.043-11.1133 14.5801-10.5664L16.875-8.25195C17.3633-7.76367 17.7734-7.74414 18.3398-7.8418L19.4043-8.03711L20.0684-7.36328L20.0293-6.80664C19.9902-6.30859 20.1172-5.92773 20.6055-5.44922L21.3672-4.70703C21.8457-4.22852 22.4609-4.19922 22.9297-4.66797L25.8398-7.58789C26.3086-8.05664 26.2891-8.65234 25.8105-9.13086L25.0391-9.89258C24.5605-10.3711 24.1895-10.5273 23.7109-10.4883L23.1348-10.4395L22.4902-11.0742L22.7344-12.1973C22.8613-12.7637 22.7051-13.2031 22.1191-13.7891L19.9219-15.9766C16.582-19.2969 12.1484-19.2188 9.25781-16.3281ZM10.752-15.957C13.1836-17.7344 16.4746-17.4316 18.7012-15.2051L21.1328-12.793C21.3672-12.5586 21.4062-12.373 21.3379-12.0312L21.0156-10.5469L22.5195-9.0625L23.5059-9.12109C23.7598-9.13086 23.8379-9.11133 24.0332-8.91602L24.6094-8.33984L22.168-5.89844L21.5918-6.47461C21.3965-6.66992 21.3672-6.74805 21.377-7.01172L21.4453-7.98828L19.9512-9.47266L18.4277-9.21875C18.1055-9.15039 17.959-9.17969 17.7148-9.41406L15.7129-11.416C15.459-11.6504 15.4297-11.8164 15.5859-12.1875L16.4648-14.2773C14.9023-15.7324 12.8711-16.3574 10.8398-15.7617C10.6836-15.7227 10.625-15.8496 10.752-15.957Z"/>
  </g>
  <text style="stroke:none;fill:black;font-family:sans-serif;font-size:13;font-weight:bold;" transform="matrix(1 0 0 1 1289 1953)">Exporting</text>
  <text style="stroke:none;fill:black;font-family:sans-serif;font-size:13;" transform="matrix(1 0 0 1 1289 1971)">Symbols should be outlined when exporting to ensure the</text>
  <text style="stroke:none;fill:black;font-family:sans-serif;font-size:13;" transform="matrix(1 0 0 1 1289 1989)">design is preserved when submitting to Xcode.</text>
  <text id="template-version" style="stroke:none;fill:black;font-family:sans-serif;font-size:13;text-anchor:end;" transform="matrix(1 0 0 1 3036 1933)">Template v.4.0</text>
  <text style="stroke:none;fill:black;font-family:sans-serif;font-size:13;text-anchor:end;" transform="matrix(1 0 0 1 3036 1951)">Requires Xcode 14 or greater</text>
  <text id="descriptive-name" style="stroke:none;fill:black;font-family:sans-serif;font-size:13;text-anchor:end;" transform="matrix(1 0 0 1 3036 1969)">Generated from custom.figure.run.square.stack</text>
  <text style="stroke:none;fill:black;font-family:sans-serif;font-size:13;text-anchor:end;" transform="matrix(1 0 0 1 3036 1987)">Typeset at 100 points</text>
  <text style="stroke:none;fill:black;font-family:sans-serif;font-size:13;" transform="matrix(1 0 0 1 263 726)">Small</text>
  <text style="stroke:none;fill:black;font-family:sans-serif;font-size:13;" transform="matrix(1 0 0 1 263 1156)">Medium</text>
  <text style="stroke:none;fill:black;font-family:sans-serif;font-size:13;" transform="matrix(1 0 0 1 263 1586)">Large</text>
 </g>
 <g id="Guides">
  <g id="H-reference" style="fill:#27AAE1;stroke:none;" transform="matrix(1 0 0 1 339 696)">
   <path d="M0.993654 0L3.63775 0L29.3281-67.1323L30.0303-67.1323L30.0303-70.459L28.1226-70.459ZM11.6885-24.4799L46.9815-24.4799L46.2315-26.7285L12.4385-26.7285ZM55.1196 0L57.7637 0L30.6382-70.459L29.4326-70.459L29.4326-67.1323Z"/>
  </g>
  <line id="Baseline-S" style="fill:none;stroke:#27AAE1;opacity:1;stroke-width:0.5;" x1="263" x2="3036" y1="696" y2="696"/>
  <line id="Capline-S" style="fill:none;stroke:#27AAE1;opacity:1;stroke-width:0.5;" x1="263" x2="3036" y1="625.541" y2="625.541"/>
  <g id="H-reference" style="fill:#27AAE1;stroke:none;" transform="matrix(1 0 0 1 339 1126)">
   <path d="M0.993654 0L3.63775 0L29.3281-67.1323L30.0303-67.1323L30.0303-70.459L28.1226-70.459ZM11.6885-24.4799L46.9815-24.4799L46.2315-26.7285L12.4385-26.7285ZM55.1196 0L57.7637 0L30.6382-70.459L29.4326-70.459L29.4326-67.1323Z"/>
  </g>
  <line id="Baseline-M" style="fill:none;stroke:#27AAE1;opacity:1;stroke-width:0.5;" x1="263" x2="3036" y1="1126" y2="1126"/>
  <line id="Capline-M" style="fill:none;stroke:#27AAE1;opacity:1;stroke-width:0.5;" x1="263" x2="3036" y1="1055.54" y2="1055.54"/>
  <g id="H-reference" style="fill:#27AAE1;stroke:none;" transform="matrix(1 0 0 1 339 1556)">
   <path d="M0.993654 0L3.63775 0L29.3281-67.1323L30.0303-67.1323L30.0303-70.459L28.1226-70.459ZM11.6885-24.4799L46.9815-24.4799L46.2315-26.7285L12.4385-26.7285ZM55.1196 0L57.7637 0L30.6382-70.459L29.4326-70.459L29.4326-67.1323Z"/>
  </g>
  <line id="Baseline-L" style="fill:none;stroke:#27AAE1;opacity:1;stroke-width:0.5;" x1="263" x2="3036" y1="1556" y2="1556"/>
  <line id="Capline-L" style="fill:none;stroke:#27AAE1;opacity:1;stroke-width:0.5;" x1="263" x2="3036" y1="1485.54" y2="1485.54"/>
  <line id="left-margin-Regular-M" style="fill:none;stroke:#00AEEF;stroke-width:0.5;opacity:1.0;" x1="1394.59" x2="1394.59" y1="1030.79" y2="1150.12"/>
  <line id="right-margin-Regular-M" style="fill:none;stroke:#00AEEF;stroke-width:0.5;opacity:1.0;" x1="1505.1" x2="1505.1" y1="1030.79" y2="1150.12"/>
 </g>
 <g id="Symbols">
  <g id="Black-L" transform="matrix(1 0 0 1 2858.17 1556)">
   <path d="M39.8556 44.5803L111.201 44.5803C125.762 44.5803 134.369 35.9715 134.369 20.8722L134.369-50.0159C134.369-65.1152 125.741-73.7043 110.597-73.7043L39.8556-73.7043C24.7123-73.7043 16.084-65.1175 16.084-50.0159L16.084 20.8722C16.084 35.9739 24.7123 44.5803 39.8556 44.5803ZM42.5864 24.6004C38.2704 24.6004 36.065 22.669 36.065 18.0374L36.065-47.1603C36.065-51.7931 38.2704-53.7233 42.5864-53.7233L107.866-53.7233C112.177-53.7233 114.389-51.7931 114.389-47.1603L114.389 18.0374C114.389 22.669 112.177 24.6004 108.47 24.6004ZM30.6542-83.0818L117.929-83.0818C117.172-90.1278 113.092-94.4915 104.77-94.4915L43.8148-94.4915C35.4914-94.4915 31.4337-90.1278 30.6542-83.0818ZM41.0849-104.363L107.499-104.363C106.927-111.109 102.511-114.959 95.3846-114.959L53.1989-114.959C46.0737-114.959 41.6771-111.109 41.0849-104.363ZM51.963 21.104C53.3254 21.104 54.4852 20.4022 55.5915 19.2764L65.4241 9.68619C66.3504 8.84035 66.5732 8.39588 67.1338 6.95669L71.3009-3.38227C71.7338-4.57102 72.7046-4.87831 73.9933-4.1029L81.499 0.261935L74.5235 6.12599C73.5244 6.92659 72.9602 8.02926 72.9602 9.26956C72.9602 11.4077 74.5586 13.0321 76.6788 13.0321C77.9619 13.0321 78.9842 12.5508 80.1113 11.5649L90.6664 2.66093C91.6732 1.83589 92.1116 0.816009 92.1116-0.403429C92.1116-1.76054 91.2954-2.83999 90.0243-3.70787L79.2751-10.7521L81.1692-17.2879C81.318-17.8942 81.8646-17.9578 82.2987-17.4147L84.9459-13.7802C86.0265-12.3362 87.6729-11.7601 89.3945-12.4827L99.9385-17.042C102.083-17.9462 102.708-20.005 101.825-21.9655C100.943-23.8492 99.0835-24.607 96.9158-23.6652L89.4482-20.3658L84.2476-27.6738C81.3704-31.7209 77.6622-33.3709 72.3024-32.9688L59.1766-32.0205C57.0737-31.8597 55.7454-30.3393 55.4248-28.2908L53.9124-17.0495C53.5324-14.5665 54.8311-12.8252 57.351-12.684C59.3942-12.5231 61.0914-13.8022 61.3339-16.1284L62.4895-24.3371L66.8866-24.5419C67.5476-24.5627 67.8429-24.2466 67.6381-23.6064L59.7475 4.2312L49.6612 14.2955C48.7182 15.2362 48.2577 16.2584 48.2577 17.2819C48.2577 19.3032 49.8584 21.104 51.963 21.104ZM82.4563-34.4528C86.6786-34.4528 90.0579-37.8709 90.0579-41.9335C90.0579-46.1182 86.6798-49.5946 82.4563-49.5946C78.2936-49.5946 74.8964-46.1182 74.8964-41.9335C74.8964-37.8721 78.2936-34.4528 82.4563-34.4528Z"/>
  </g>
  <g id="Heavy-L" transform="matrix(1 0 0 1 2562.47 1556)">
   <path d="M38.8315 42.8411L110.465 42.8411C124.238 42.8411 132.337 34.7309 132.337 20.1898L132.337-50.7853C132.337-65.3263 124.208-73.4121 109.59-73.4121L38.8315-73.4121C24.2188-73.4121 16.084-65.3376 16.084-50.7853L16.084 20.1898C16.084 34.7421 24.2188 42.8411 38.8315 42.8411ZM40.9557 25.3464C36.1179 25.3464 33.5844 23.046 33.5844 17.9147L33.5844-48.48C33.5844-53.6169 36.1179-55.9116 40.9557-55.9116L107.465-55.9116C112.281-55.9116 114.842-53.6169 114.842-48.48L114.842 17.9147C114.842 23.046 112.281 25.3464 108.341 25.3464ZM30.3827-83.0234L116.611-83.0234C115.837-89.6715 112.107-93.7088 104.369-93.7088L42.6296-93.7088C34.8866-93.7088 31.1924-89.6715 30.3827-83.0234ZM40.9009-103.318L106.092-103.318C105.584-109.651 101.531-113.22 94.8021-113.22L52.1911-113.22C45.4683-113.22 41.439-109.651 40.9009-103.318ZM50.3202 21.2497C51.665 21.2497 52.7884 20.5617 53.8897 19.4358L64.0306 9.5419C64.9756 8.67733 65.1979 8.23834 65.7496 6.83007L70.1053-4.13409C70.6115-5.47397 71.7516-5.8226 73.1964-4.96447L81.1509-0.315663L73.7673 5.91505C72.8047 6.70242 72.2361 7.78688 72.2361 8.99078C72.2361 11.0467 73.7705 12.6628 75.8366 12.6628C77.1064 12.6628 78.1106 12.1859 79.2421 11.1907L90.101 2.00609C91.1265 1.17169 91.5373 0.178863 91.5373-0.994832C91.5373-2.28796 90.7713-3.331 89.4633-4.23141L78.2337-11.5866L80.2784-18.648C80.4775-19.4004 81.1796-19.4966 81.6914-18.8112L84.5294-14.8491C85.5781-13.4183 87.2299-12.888 88.9107-13.6062L99.6901-18.29C101.803-19.1992 102.457-21.1803 101.578-23.0911C100.704-24.9384 98.904-25.6598 96.7496-24.7362L88.933-21.2808L83.4936-28.9422C80.5883-33.0449 76.8206-34.7137 71.3494-34.3116L58.0517-33.3308C55.999-33.17 54.6519-31.7048 54.3357-29.6507L52.7865-18.0825C52.4201-15.6634 53.6687-13.9581 56.1256-13.8218C58.1281-13.6609 59.7619-14.8849 60.0088-17.189L61.2332-25.8371L65.8449-26.0695C66.625-26.0997 67.0118-25.6827 66.7795-24.9328L58.5305 4.16413L48.0632 14.5957C47.134 15.5137 46.6872 16.5177 46.6872 17.5274C46.6872 19.4941 48.2328 21.2497 50.3202 21.2497ZM81.6885-35.7681C85.9251-35.7681 89.3375-39.2004 89.3375-43.2818C89.3375-47.5039 85.9307-50.9809 81.6885-50.9809C77.5021-50.9809 74.1-47.5039 74.1-43.2818C74.1-39.2061 77.5021-35.7681 81.6885-35.7681Z"/>
  </g>
  <g id="Bold-L" transform="matrix(1 0 0 1 2267.07 1556)">
   <path d="M37.5412 40.5852L109.372 40.5852C122.236 40.5852 129.728 33.0674 129.728 19.2552L129.728-51.753C129.728-65.5653 122.198-73.0583 108.27-73.0583L37.5412-73.0583C23.6265-73.0583 16.084-65.5917 16.084-51.753L16.084 19.2552C16.084 33.0939 23.6265 40.5852 37.5412 40.5852ZM38.987 26.1567C33.4665 26.1567 30.5258 23.3954 30.5258 17.6195L30.5258-50.0793C30.5258-55.8685 33.4665-58.6165 38.987-58.6165L106.824-58.6165C112.292-58.6165 115.299-55.8685 115.299-50.0793L115.299 17.6195C115.299 23.3954 112.292 26.1567 107.926 26.1567ZM29.9477-83.0064L114.929-83.0064C114.177-89.0434 110.9-92.6511 104.004-92.6511L40.8862-92.6511C33.9772-92.6511 30.7511-89.0434 29.9477-83.0064ZM40.4916-102.042L104.385-102.042C103.962-107.764 100.391-110.964 94.2736-110.964L50.6034-110.964C44.4993-110.964 40.9532-107.764 40.4916-102.042ZM48.3809 21.2253C49.6952 21.2253 50.7725 20.5528 51.8737 19.4269L62.3539 9.20115C63.3145 8.32099 63.5442 7.87474 64.0807 6.5198L68.6447-5.13839C69.2356-6.65534 70.5758-7.05022 72.1978-6.09957L80.6758-1.11971L72.8225 5.53455C71.9059 6.29909 71.3297 7.3605 71.3297 8.51833C71.3297 10.4743 72.7872 12.0678 74.7768 12.0678C76.0237 12.0678 77.0048 11.5985 78.1439 10.5955L89.3347 1.10226C90.3757 0.260067 90.7557-0.694474 90.7557-1.81432C90.7557-3.03053 90.0513-4.02749 88.7046-4.95893L76.9056-12.6835L79.1347-20.3756C79.3953-21.3048 80.2821-21.432 80.8862-20.5849L83.9698-16.2081C84.98-14.8001 86.6247-14.3237 88.2518-15.0343L99.2784-19.8495C101.346-20.7588 102.022-22.6476 101.151-24.4895C100.293-26.2907 98.5694-26.966 96.4379-26.0654L88.2281-22.4328L82.519-30.495C79.5903-34.6519 75.7533-36.3363 70.1737-35.9342L56.7129-34.9224C54.7218-34.7616 53.3591-33.358 53.0505-31.3112L51.4626-19.3879C51.1117-17.0458 52.2988-15.3939 54.6639-15.2579C56.6128-15.097 58.1622-16.2593 58.4167-18.5253L59.7182-27.6892L64.5913-27.9524C65.51-27.9904 66.0046-27.4578 65.7413-26.5771L57.0914 3.92315L46.1926 14.7708C45.2788 15.6582 44.8475 16.6392 44.8475 17.6335C44.8475 19.531 46.3314 21.2253 48.3809 21.2253ZM80.6985-37.3598C84.9431-37.3598 88.379-40.8002 88.379-44.8971C88.379-49.1505 84.9564-52.62 80.6985-52.62C76.4963-52.62 73.094-49.1505 73.094-44.8971C73.094-40.8134 76.4963-37.3598 80.6985-37.3598Z"/>
  </g>
  <g id="Semibold-L" transform="matrix(1 0 0 1 1971.26 1556)">
   <path d="M36.6518 39.03L108.618 39.03C120.856 39.03 127.928 31.9206 127.928 18.6108L127.928-52.4201C127.928-65.73 120.813-72.8145 107.361-72.8145L36.6518-72.8145C23.2182-72.8145 16.084-65.7669 16.084-52.4201L16.084 18.6108C16.084 31.9576 23.2182 39.03 36.6518 39.03ZM37.6298 26.7153C31.6386 26.7153 28.4171 23.6363 28.4171 17.4159L28.4171-51.1819C28.4171-57.4208 31.6386-60.4813 37.6298-60.4813L106.383-60.4813C112.3-60.4813 115.614-57.4208 115.614-51.1819L115.614 17.4159C115.614 23.6363 112.3 26.7153 107.64 26.7153ZM29.6479-82.9946L113.77-82.9946C113.033-88.6103 110.068-91.922 103.752-91.922L39.6844-91.922C33.3503-91.922 30.447-88.6103 29.6479-82.9946ZM40.2094-101.162L103.209-101.162C102.843-106.462 99.6054-109.409 93.9092-109.409L49.5089-109.409C43.8312-109.409 40.6182-106.462 40.2094-101.162ZM47.044 21.2085C48.3372 21.2085 49.3828 20.5466 50.4838 19.4207L61.1981 8.96625C62.1694 8.07533 62.4042 7.62408 62.9302 6.3059L67.6378-5.83075C68.2871-7.46978 69.7652-7.89654 71.5094-6.8821L80.3484-1.67402L72.1711 5.27223C71.2863 6.02103 70.7048 7.06655 70.7048 8.19263C70.7048 10.0797 72.1093 11.6575 74.0461 11.6575C75.2773 11.6575 76.2425 11.1935 77.3869 10.1851L88.8063 0.479161C89.8581-0.368402 90.2169-1.29655 90.2169-2.37927C90.2169-3.54246 89.5548-4.50764 88.1815-5.46048L75.99-13.4396L78.3463-21.5666C78.6492-22.6177 79.6633-22.7663 80.3311-21.8076L83.584-17.1449C84.5678-15.7528 86.2074-15.3134 87.7975-16.0188L98.9946-20.9245C101.03-21.834 101.723-23.6591 100.857-25.4535C100.009-27.223 98.3387-27.8665 96.2229-26.9818L87.7422-23.227L81.8471-31.5654C78.9023-35.7598 75.0175-37.4549 69.3631-37.0528L55.79-36.0196C53.8413-35.8588 52.4678-34.4977 52.1645-32.4559L50.55-20.2879C50.2097-17.9988 51.3543-16.3838 53.6562-16.2479C55.5681-16.087 57.0593-17.2068 57.3191-19.4465L58.6738-28.9659L63.7271-29.2504C64.7413-29.2938 65.3101-28.6815 65.0256-27.7107L56.0994 3.75702L44.903 14.8916C43.9998 15.7578 43.5792 16.723 43.5792 17.7066C43.5792 19.5565 45.0205 21.2085 47.044 21.2085ZM80.016-38.4571C84.2661-38.4571 87.7183-41.903 87.7183-46.0107C87.7183-50.2856 84.2846-53.75 80.016-53.75C75.803-53.75 72.4005-50.2856 72.4005-46.0107C72.4005-41.9215 75.803-38.4571 80.016-38.4571Z"/>
  </g>
  <g id="Medium-L" transform="matrix(1 0 0 1 1675.23 1556)">
   <path d="M35.9773 37.8507L108.047 37.8507C119.81 37.8507 126.564 31.0511 126.564 18.1222L126.564-52.926C126.564-65.8548 119.762-72.6296 106.671-72.6296L35.9773-72.6296C22.9086-72.6296 16.084-65.8998 16.084-52.926L16.084 18.1222C16.084 31.096 22.9086 37.8507 35.9773 37.8507ZM36.6008 27.1389C30.2527 27.1389 26.8183 23.819 26.8183 17.2616L26.8183-52.018C26.8183-58.5977 30.2527-61.8952 36.6008-61.8952L106.048-61.8952C112.306-61.8952 115.852-58.5977 115.852-52.018L115.852 17.2616C115.852 23.819 112.306 27.1389 107.423 27.1389ZM29.4206-82.9857L112.891-82.9857C112.165-88.282 109.437-91.3691 103.561-91.3691L38.773-91.3691C32.8749-91.3691 30.2163-88.282 29.4206-82.9857ZM39.9955-100.495L102.316-100.495C101.995-105.475 99.0097-108.229 93.633-108.229L48.6789-108.229C43.3247-108.229 40.3643-105.475 39.9955-100.495ZM46.0302 21.1958C47.3076 21.1958 48.329 20.5419 49.43 19.4161L60.3216 8.78813C61.3011 7.88905 61.5398 7.43402 62.0579 6.14371L66.8743-6.35573C67.5679-8.08732 69.1506-8.53825 70.9875-7.47545L80.1-2.09432L71.6772 5.07333C70.8164 5.8102 70.231 6.84367 70.231 7.94567C70.231 9.78049 71.5953 11.3465 73.4921 11.3465C74.7114 11.3465 75.6645 10.8864 76.8129 9.87395L88.4058 0.00670414C89.4657-0.844934 89.8084-1.75307 89.8084-2.80764C89.8084-3.93062 89.1784-4.87171 87.7849-5.84077L75.2957-14.013L77.7484-22.4696C78.0836-23.6132 79.1942-23.778 79.9103-22.7348L83.2915-17.8553C84.2551-16.4751 85.891-16.0639 87.4531-16.7653L98.7794-21.7397C100.791-22.6492 101.496-24.4261 100.634-26.1845C99.7944-27.9298 98.1638-28.5493 96.06-27.6766L87.3738-23.8292L81.3377-32.3771C78.3806-36.5998 74.4596-38.3031 68.7485-37.901L55.0902-36.8515C53.1736-36.6907 51.792-35.3619 51.4927-33.3239L49.858-20.9703C49.5257-18.7214 50.6382-17.1344 52.8922-16.9986C54.7759-16.8377 56.2231-17.9252 56.4869-20.145L57.8818-29.934L63.0718-30.2347C64.1585-30.2821 64.7836-29.6094 64.483-28.5702L55.3472 3.63105L43.9252 14.9832C43.0301 15.8334 42.6175 16.7865 42.6175 17.762C42.6175 19.5758 44.0266 21.1958 46.0302 21.1958ZM79.4985-39.2892C83.7528-39.2892 87.2173-42.7392 87.2173-46.8551C87.2173-51.1463 83.7753-54.6068 79.4985-54.6068C75.2772-54.6068 71.8746-51.1463 71.8746-46.8551C71.8746-42.7617 75.2772-39.2892 79.4985-39.2892Z"/>
  </g>
  <g id="Regular-L" transform="matrix(1 0 0 1 1379.41 1556)">
   <path d="M35.0976 36.3126L107.302 36.3126C118.445 36.3126 124.785 29.9169 124.785 17.485L124.785-53.5858C124.785-66.0177 118.392-72.3884 105.771-72.3884L35.0976-72.3884C22.5048-72.3884 16.084-66.073 16.084-53.5858L16.084 17.485C16.084 29.9722 22.5048 36.3126 35.0976 36.3126ZM35.2585 27.6914C28.4449 27.6914 24.7329 24.0572 24.7329 17.0603L24.7329-53.1084C24.7329-60.133 28.4449-63.7395 35.2585-63.7395L105.611-63.7395C112.314-63.7395 116.164-60.133 116.164-53.1084L116.164 17.0603C116.164 24.0572 112.314 27.6914 107.141 27.6914ZM29.124-82.974L111.745-82.974C111.034-87.8537 108.614-90.648 103.312-90.648L37.5844-90.648C32.2549-90.648 29.9155-87.8537 29.124-82.974ZM39.7164-99.6252L101.153-99.6252C100.889-104.188 98.2328-106.691 93.2726-106.691L47.5964-106.691C42.664-106.691 40.033-104.188 39.7164-99.6252ZM44.708 21.1792C45.9645 21.1792 46.9546 20.5358 48.0554 19.41L59.1785 8.55581C60.1686 7.64609 60.4124 7.18611 60.92 5.93217L65.8784-7.04048C66.6298-8.8928 68.3489-9.37527 70.3067-8.24938L79.7762-2.64253L71.0329 4.8139C70.2036 5.5352 69.613 6.55296 69.613 7.62355C69.613 9.39022 70.9249 10.9408 72.7694 10.9408C73.9732 10.9408 74.9106 10.4859 76.0641 9.46809L87.8832-0.609544C88.9538-1.4665 89.2755-2.34852 89.2755-3.36639C89.2755-4.43691 88.6875-5.34659 87.2676-6.3368L74.3902-14.7608L76.9687-23.6475C77.3457-24.9116 78.5823-25.0976 79.3613-23.9441L82.91-18.7819C83.8474-17.4172 85.4783-17.0428 87.0038-17.739L98.4987-22.8029C100.479-23.7126 101.2-25.4265 100.343-27.1379C99.5139-28.8518 97.9357-29.4399 95.8474-28.5829L86.8932-24.6146L80.6732-33.4358C77.7002-37.6955 73.7319-39.4094 67.9469-39.0073L54.1775-37.9367C52.3028-37.7758 50.9106-36.4891 50.6164-34.4561L48.9554-21.8604C48.6336-19.664 49.7042-18.1134 51.8956-17.9777C53.7427-17.8168 55.1324-18.8623 55.4013-21.0562L56.8489-31.1968L62.217-31.5184C63.3982-31.5712 64.0968-30.8197 63.7752-29.6914L54.366 3.46674L42.6498 15.1026C41.7652 15.9319 41.3632 16.8693 41.3632 17.8343C41.3632 19.601 42.7302 21.1792 44.708 21.1792ZM78.8235-40.3745C83.0832-40.3745 86.5638-43.8299 86.5638-47.9565C86.5638-52.2689 83.1109-55.7244 78.8235-55.7244C74.5914-55.7244 71.1887-52.2689 71.1887-47.9565C71.1887-43.8576 74.5914-40.3745 78.8235-40.3745Z"/>
  </g>
  <g id="Light-L" transform="matrix(1 0 0 1 1083.9 1556)">
   <path d="M34.067 34.0987L105.374 34.0987C116.326 34.0987 122.38 27.9511 122.38 16.2635L122.38-54.3492C122.38-66.0369 116.292-72.1976 104.397-72.1976L34.067-72.1976C22.2186-72.1976 16.084-66.1303 16.084-54.3492L16.084 16.2635C16.084 28.0446 22.2186 34.0987 34.067 34.0987ZM34.2278 27.5197C26.7081 27.5197 22.7098 23.5419 22.7098 15.9343L22.7098-53.9864C22.7098-61.6407 26.7081-65.5717 34.2278-65.5717L104.236-65.5717C111.569-65.5717 115.801-61.6407 115.801-53.9864L115.801 15.9343C115.801 23.5419 111.569 27.5197 105.213 27.5197ZM28.1888-83.3175L110.275-83.3175C109.851-87.014 107.87-89.3503 103.904-89.3503L34.607-89.3503C30.5945-89.3503 28.694-87.014 28.1888-83.3175ZM38.266-98.8618L100.198-98.8618C100.03-102.356 97.9274-104.477 94.1505-104.477L44.3137-104.477C40.5837-104.477 38.4681-102.356 38.266-98.8618ZM43.9827 19.8432C45.163 19.8432 46.1148 19.1999 47.2538 18.074L58.3387 7.27709C59.2907 6.40555 59.5917 5.85013 60.0612 4.7298L65.0005-8.20468C65.771-10.1142 67.5664-10.5968 69.5432-9.47087L79.1654-3.76857L70.3268 3.78331C69.5356 4.44735 68.9259 5.44601 68.9259 6.47843C68.9259 8.18784 70.1997 9.64296 71.9297 9.64296C73.0762 9.64296 73.9945 9.20718 75.1671 8.20846L86.929-1.83099C87.9614-2.66886 88.2831-3.49364 88.2831-4.49243C88.2831-5.52475 87.7332-6.39626 86.3324-7.34832L73.226-15.925L75.919-25.1171C76.3342-26.4766 77.6471-26.6244 78.4643-25.4518L82.242-19.946C83.1603-18.6387 84.6959-18.2833 86.164-18.9604L97.5444-23.9671C99.4484-24.8386 100.112-26.5144 99.2745-28.1304C98.4833-29.8061 96.9814-30.356 94.9504-29.5181L85.9771-25.5308L79.738-34.39C76.8223-38.5925 72.8349-40.2682 67.1644-39.8661L53.6049-38.8337C51.7684-38.6729 50.4143-37.3861 50.1393-35.4485L48.4973-22.9291C48.1756-20.7709 49.208-19.3158 51.2466-19.1419C53.0366-18.981 54.3308-20.0265 54.6188-22.1249L56.0664-32.4373L61.5872-32.759C62.8066-32.7926 63.5433-32.0221 63.2217-30.8365L53.8125 2.28346L42.0582 13.9575C41.1736 14.7486 40.7715 15.6669 40.7715 16.6319C40.7715 18.3414 42.1385 19.8432 43.9827 19.8432ZM77.8883-41.2333C82.0907-41.2333 85.476-44.6315 85.476-48.7198C85.476-52.956 82.1376-56.3542 77.8883-56.3542C73.7326-56.3542 70.368-52.956 70.368-48.7198C70.368-44.6782 73.7326-41.2333 77.8883-41.2333Z"/>
  </g>
  <g id="Thin-L" transform="matrix(1 0 0 1 788.78 1556)">
   <path d="M32.704 31.1707L102.824 31.1707C113.524 31.1707 119.2 25.3512 119.2 14.6481L119.2-55.3589C119.2-66.0622 113.516-71.9452 102.58-71.9452L32.704-71.9452C21.84-71.9452 16.084-66.2061 16.084-55.3589L16.084 14.6481C16.084 25.4952 21.84 31.1707 32.704 31.1707ZM32.8647 27.2925C24.4111 27.2925 20.0341 22.8604 20.0341 14.445L20.0341-55.1475C20.0341-63.6348 24.4111-67.995 32.8647-67.995L102.419-67.995C110.585-67.995 115.322-63.6348 115.322-55.1475L115.322 14.445C115.322 22.8604 110.585 27.2925 102.664 27.2925ZM26.952-83.7719L108.332-83.7719C108.286-85.9034 106.885-87.6338 104.686-87.6338L30.6693-87.6338C28.3984-87.6338 27.0786-85.9034 26.952-83.7719ZM36.3476-97.8522L98.9363-97.8522C98.8941-99.933 97.5236-101.549 95.3116-101.549L39.9721-101.549C37.8323-101.549 36.3982-99.933 36.3476-97.8522ZM43.0235 18.0763C44.1028 18.0763 45.0042 17.4329 46.1937 16.3071L57.2281 5.58588C58.1295 4.76484 58.5063 4.08318 58.9253 3.13957L63.8393-9.74443C64.6351-11.7297 66.5315-12.2123 68.5336-11.0864L78.3577-5.25785L69.3928 2.42026C68.6521 3.00859 68.0172 3.98198 68.0172 4.96393C68.0172 6.59761 69.2404 7.92652 70.819 7.92652C71.8899 7.92652 72.7829 7.51598 73.9807 6.5425L85.6669-3.44645C86.6488-4.25909 86.9705-5.00816 86.9705-5.98171C86.9705-6.9635 86.4711-7.78454 85.0955-8.68612L71.6862-17.4647L74.5307-27.0607C74.9963-28.5465 76.4102-28.6438 77.2779-27.4459L81.3586-21.4857C82.2516-20.2542 83.6609-19.924 85.0533-20.5759L96.2823-25.5069C98.0853-26.3279 98.6736-27.9532 97.861-29.4429C97.1203-31.0682 95.7193-31.5676 93.764-30.755L84.7655-26.7424L78.5011-35.6521C75.6612-39.7789 71.6486-41.4042 66.1294-41.002L52.8476-40.02C51.0616-39.8593 49.758-38.5725 49.5083-36.7611L47.8915-24.3427C47.5698-22.235 48.5517-20.906 50.3884-20.6817C52.1026-20.5208 53.2707-21.5663 53.5839-23.5384L55.0315-34.078L60.7542-34.3997C62.0241-34.4081 62.8113-33.6124 62.4897-32.351L53.0805 0.71847L41.2757 12.443C40.3911 13.1836 39.989 14.0767 39.989 15.0417C39.989 16.6754 41.356 18.0763 43.0235 18.0763ZM76.6515-42.3691C80.7781-42.3691 84.0372-45.6916 84.0372-49.7294C84.0372-53.8648 80.8502-57.1873 76.6515-57.1873C72.5967-57.1873 69.2826-53.8648 69.2826-49.7294C69.2826-45.7636 72.5967-42.3691 76.6515-42.3691Z"/>
  </g>
  <g id="Ultralight-L" transform="matrix(1 0 0 1 492.884 1556)">
   <path d="M32.0058 29.671L101.519 29.671C112.089 29.671 117.571 24.0196 117.571 13.8206L117.571-55.876C117.571-66.0751 112.094-71.8159 101.649-71.8159L32.0058-71.8159C21.6461-71.8159 16.084-66.2449 16.084-55.876L16.084 13.8206C16.084 24.1894 21.6461 29.671 32.0058 29.671ZM32.1666 27.1761C23.2346 27.1761 18.6637 22.5113 18.6637 13.6822L18.6637-55.7423C18.6637-64.6562 23.2346-69.2362 32.1666-69.2362L101.488-69.2362C110.081-69.2362 115.076-64.6562 115.076-55.7423L115.076 13.6822C115.076 22.5113 110.081 27.1761 101.358 27.1761ZM26.3185-84.0046L107.336-84.0046C107.484-85.3345 106.381-86.7547 105.087-86.7547L28.6524-86.7547C27.2737-86.7547 26.2511-85.3345 26.3185-84.0046ZM35.3651-97.335L98.2898-97.335C98.3123-98.6918 97.3167-100.05 95.9063-100.05L37.7484-100.05C36.423-100.05 35.3381-98.6918 35.3651-97.335ZM42.5322 17.1713C43.5598 17.1713 44.4354 16.5279 45.6507 15.4021L56.6592 4.71965C57.5348 3.92447 57.9504 3.17816 58.3435 2.32506L63.2446-10.5331C64.0534-12.5571 66.0014-13.0397 68.0164-11.9138L77.944-6.02065L68.9144 1.72212C68.1996 2.27166 67.5518 3.23211 67.5518 4.18821C67.5518 5.7831 68.7491 7.04737 70.2501 7.04737C71.2822 7.04737 72.1623 6.64976 73.3731 5.6892L85.0204-4.27388C85.9765-5.07359 86.2982-5.78389 86.2982-6.74451C86.2982-7.70042 85.8247-8.49561 84.462-9.37134L70.8976-18.2534L73.8196-28.0562C74.3111-29.6066 75.7767-29.6781 76.6702-28.4673L80.9061-22.2744C81.7861-21.0817 83.1309-20.7644 84.4845-21.4033L95.6358-26.2955C97.3871-27.0907 97.9367-28.6901 97.137-30.1152C96.4222-31.7146 95.0729-32.1882 93.1563-31.3885L84.1449-27.363L77.8676-36.2986C75.0665-40.3865 71.0409-41.986 65.5994-41.5837L52.4598-40.6276C50.6996-40.4669 49.4219-39.1801 49.1851-37.4333L47.5811-25.0666C47.2595-22.9848 48.2156-21.7205 49.9488-21.4703C51.6242-21.3094 52.7277-22.3549 53.0538-24.2624L54.5014-34.9184L60.3276-35.24C61.6233-35.2355 62.4364-34.4269 62.1147-33.1267L52.7056-0.0831094L40.8749 11.6672C39.9903 12.382 39.5882 13.2622 39.5882 14.2272C39.5882 15.8221 40.9552 17.1713 42.5322 17.1713ZM76.018-42.9509C80.1058-42.9509 83.3003-46.2346 83.3003-50.2466C83.3003-54.3302 80.1909-57.6139 76.018-57.6139C72.015-57.6139 68.7267-54.3302 68.7267-50.2466C68.7267-46.3195 72.015-42.9509 76.018-42.9509Z"/>
  </g>
  <g id="Black-M" transform="matrix(1 0 0 1 2874.4 1126)">
   <path d="M31.6184 27.7972L86.5227 27.7972C98.456 27.7972 105.521 20.7328 105.521 8.65584L105.521-46.1274C105.521-58.2043 98.4505-65.2629 86.3635-65.2629L31.6184-65.2629C19.5311-65.2629 12.4609-58.2037 12.4609-46.1274L12.4609 8.65584C12.4609 20.7322 19.5311 27.7972 31.6184 27.7972ZM34.2553 10.4589C31.2643 10.4589 29.7989 9.23313 29.7989 5.99153L29.7989-43.4576C29.7989-46.6989 31.2643-47.9249 34.2553-47.9249L83.7266-47.9249C86.7187-47.9249 88.1827-46.6989 88.1827-43.4576L88.1827 5.99153C88.1827 9.23313 86.7187 10.4589 83.8859 10.4589ZM23.8558-72.3994L92.299-72.3994C91.7651-78.0398 88.3633-81.6392 81.5941-81.6392L34.5604-81.6392C27.7915-81.6392 24.3949-78.0398 23.8558-72.3994ZM31.7919-89.5851L84.3629-89.5851C83.8787-95.0212 80.2208-98.1938 74.5181-98.1938L41.6368-98.1938C35.9338-98.1938 32.2816-95.0212 31.7919-89.5851ZM41.5714 8.10819C42.6318 8.10819 43.5564 7.55266 44.4229 6.6804L51.7707-0.480676C52.467-1.1147 52.6479-1.4767 53.0846-2.60017L56.1484-10.0677C56.4233-10.8666 57.0403-11.0691 57.9072-10.5395L63.3571-7.38895L58.2906-3.14801C57.4905-2.52413 57.0546-1.6568 57.0546-0.669771C57.0546 1.04957 58.3427 2.30228 60.0163 2.30228C61.014 2.30228 61.819 1.92817 62.691 1.17503L70.5997-5.4769C71.3585-6.10546 71.7218-6.9111 71.7218-7.89258C71.7218-8.99379 71.0515-9.8562 70.101-10.4955L62.1549-15.7063L63.5085-20.3596C63.5858-20.7167 63.886-20.7328 64.1607-20.4317L66.0786-17.8509C66.9407-16.7286 68.1986-16.2455 69.5597-16.8065L77.5108-20.224C79.1889-20.9151 79.6415-22.5718 78.9558-24.1204C78.2699-25.6059 76.7891-26.2191 75.1061-25.4764L69.618-23.0518L65.7914-28.4149C63.5943-31.4948 60.77-32.7519 56.7287-32.4403L46.7359-31.7388C45.0687-31.6142 44.0609-30.3889 43.8113-28.8195L42.6739-20.4017C42.3676-18.4282 43.4118-17.0613 45.3974-16.9424C47.0077-16.8177 48.3641-17.8561 48.5508-19.6644L49.3868-25.6696L52.6298-25.8045C53.0447-25.81 53.2-25.6493 53.065-25.2398L47.2598-4.76031L39.7678 2.72652C39.0254 3.46954 38.6568 4.27457 38.6568 5.07933C38.6568 6.68447 39.9443 8.10819 41.5714 8.10819ZM64.4155-33.6138C67.6666-33.6138 70.2434-36.2418 70.2434-39.3681C70.2434-42.5675 67.6663-45.2527 64.4155-45.2527C61.2212-45.2527 58.5987-42.5675 58.5987-39.3681C58.5987-36.2416 61.2212-33.6138 64.4155-33.6138Z"/>
  </g>
  <g id="Heavy-M" transform="matrix(1 0 0 1 2578.58 1126)">
   <path d="M30.7123 26.3013L85.9815 26.3013C97.1616 26.3013 103.757 19.7014 103.757 8.10144L103.757-46.809C103.757-58.4089 97.1452-64.9948 85.5057-64.9948L30.7123-64.9948C19.075-64.9948 12.4609-58.4135 12.4609-46.809L12.4609 8.10144C12.4609 19.7059 19.075 26.3013 30.7123 26.3013ZM32.7563 11.2039C29.3203 11.2039 27.5606 9.64919 27.5606 5.97543L27.5606-44.6666C27.5606-48.3426 29.3203-49.8951 32.7563-49.8951L83.4617-49.8951C86.8885-49.8951 88.6596-48.3426 88.6596-44.6666L88.6596 5.97543C88.6596 9.64919 86.8885 11.2039 83.9375 11.2039ZM23.6766-72.3106L91.1455-72.3106C90.5691-77.6713 87.4686-80.9937 81.1479-80.9937L33.6765-80.9937C27.3535-80.9937 24.2717-77.6713 23.6766-72.3106ZM31.7458-88.6339L83.0763-88.6339C82.6453-93.7651 79.2905-96.6979 73.8676-96.6979L40.9544-96.6979C35.5338-96.6979 32.1932-93.7651 31.7458-88.6339ZM40.0325 8.37388C41.0826 8.37388 41.9752 7.83182 42.8333 6.95956L50.4859-0.503763C51.204-1.15963 51.3791-1.50746 51.8107-2.61303L55.0606-10.6953C55.4055-11.6366 56.1809-11.8795 57.1986-11.269L63.0731-7.84972L57.6166-3.25914C56.8485-2.64292 56.4101-1.79162 56.4101-0.836654C56.4101 0.80764 57.6392 2.06105 59.2705 2.06105C60.2605 2.06105 61.0495 1.68949 61.9241 0.925433L70.135-6.00437C70.9156-6.64384 71.252-7.42831 71.252-8.36683C71.252-9.40903 70.6272-10.2394 69.6389-10.914L61.2444-16.4148L62.7345-21.5536C62.8574-22.0447 63.3026-22.0962 63.6497-21.6578L65.733-18.7884C66.5657-17.6737 67.8377-17.2337 69.1642-17.7921L77.356-21.3366C79.0104-22.0361 79.4957-23.6203 78.8127-25.1292C78.1319-26.5826 76.7017-27.1638 75.0263-26.4371L69.1988-23.8617L65.1406-29.5669C62.9107-32.7064 60.03-33.9853 55.8693-33.6738L45.689-32.9369C44.0673-32.8124 43.0377-31.641 42.7906-30.0574L41.6154-21.3129C41.3226-19.3984 42.3212-18.0578 44.2594-17.9473C45.8351-17.8226 47.1384-18.8071 47.3276-20.6026L48.231-27.0215L51.6696-27.1835C52.1974-27.1999 52.4386-26.9422 52.2767-26.4308L46.1212-4.71672L38.2602 3.12558C37.5313 3.85 37.1761 4.639 37.1761 5.43029C37.1761 6.98734 38.4098 8.37388 40.0325 8.37388ZM63.7512-34.8203C67.0216-34.8203 69.6395-37.4676 69.6395-40.6157C69.6395-43.8588 67.0239-46.5498 63.7512-46.5498C60.5267-46.5498 57.8958-43.8588 57.8958-40.6157C57.8958-37.4699 60.5267-34.8203 63.7512-34.8203Z"/>
  </g>
  <g id="Bold-M" transform="matrix(1 0 0 1 2282.85 1126)">
   <path d="M29.6986 24.628L85.3761 24.628C95.7136 24.628 101.784 18.5476 101.784 7.48125L101.784-47.5716C101.784-58.6379 95.685-64.6949 84.5461-64.6949L29.6986-64.6949C18.5648-64.6949 12.4609-58.6482 12.4609-47.5716L12.4609 7.48125C12.4609 18.5578 18.5648 24.628 29.6986 24.628ZM31.0794 12.0374C27.1457 12.0374 25.0567 10.1146 25.0567 5.95741L25.0567-46.0192C25.0567-50.1815 27.1457-52.0991 31.0794-52.0991L83.1653-52.0991C87.0785-52.0991 89.1932-50.1815 89.1932-46.0192L89.1932 5.95741C89.1932 10.1146 87.0785 12.0374 83.9953 12.0374ZM23.4761-72.2114L89.855-72.2114C89.2311-77.259 86.4677-80.2716 80.6487-80.2716L32.6876-80.2716C26.8634-80.2716 24.1338-77.259 23.4761-72.2114ZM31.6942-87.5699L81.637-87.5699C81.2654-92.36 78.2499-95.0246 73.14-95.0246L40.1912-95.0246C35.0864-95.0246 32.0943-92.36 31.6942-87.5699ZM38.3109 8.67109C39.3496 8.67109 40.2063 8.1441 41.0551 7.27184L49.0486-0.52959C49.7912-1.20988 49.9598-1.54187 50.3856-2.62742L53.8437-11.3973C54.2668-12.4979 55.2195-12.7861 56.4059-12.0851L62.7555-8.36514L56.8626-3.38346C56.1304-2.7758 55.6891-1.94244 55.6891-1.02334C55.6891 0.537006 56.8523 1.79119 58.4362 1.79119C59.4176 1.79119 60.1887 1.42249 61.0661 0.646218L69.6152-6.59441C70.4201-7.24609 70.7264-8.00689 70.7264-8.89735C70.7264-9.87354 70.1526-10.668 69.1219-11.3821L60.2258-17.2072L61.8688-22.8893C62.0426-23.5303 62.65-23.6213 63.0782-23.0294L65.3465-19.8372C66.1462-18.7311 67.4341-18.339 68.7219-18.8947L77.1828-22.5813C78.8107-23.2901 79.3327-24.7933 78.6525-26.2577C77.9774-27.6753 76.6039-28.2205 74.9371-27.5118L68.7299-24.7677L64.4126-30.8555C62.1461-34.0618 59.2022-35.3651 54.9079-35.0536L44.5179-34.2773C42.9472-34.1527 41.8931-33.0416 41.6489-31.4421L40.4313-22.3323C40.1536-20.4838 41.1012-19.1725 42.9864-19.0714C44.5234-18.9467 45.7671-19.8709 45.9592-21.6521L46.938-28.5339L50.5954-28.726C51.2496-28.7546 51.5869-28.3886 51.3949-27.7631L44.8474-4.66795L36.5738 3.57197C35.8599 4.27561 35.5198 5.04668 35.5198 5.82289C35.5198 7.32613 36.6932 8.67109 38.3109 8.67109ZM63.0081-36.1699C66.3001-36.1699 68.9639-38.8388 68.9639-42.0113C68.9639-45.3033 66.3052-48.0007 63.0081-48.0007C59.7498-48.0007 57.1096-45.3033 57.1096-42.0113C57.1096-38.844 59.7498-36.1699 63.0081-36.1699Z"/>
  </g>
  <g id="Semibold-M" transform="matrix(1 0 0 1 1986.82 1126)">
   <path d="M28.9999 23.4744L84.9587 23.4744C94.7154 23.4744 100.423 17.7522 100.423 7.0537L100.423-48.0973C100.423-58.7957 94.6784-64.4881 83.8845-64.4881L28.9999-64.4881C18.2131-64.4881 12.4609-58.81 12.4609-48.0973L12.4609 7.0537C12.4609 17.7664 18.2131 23.4744 28.9999 23.4744ZM29.9234 12.612C25.6465 12.612 23.3305 10.4355 23.3305 5.94499L23.3305-46.9516C23.3305-51.4491 25.6465-53.6185 29.9234-53.6185L82.961-53.6185C87.2094-53.6185 89.561-51.4491 89.561-46.9516L89.561 5.94499C89.561 10.4355 87.2094 12.612 84.0352 12.612ZM23.338-72.143L88.9654-72.143C88.3086-76.9748 85.7777-79.7738 80.3045-79.7738L32.0059-79.7738C26.5256-79.7738 24.0388-76.9748 23.338-72.143ZM31.6587-86.8363L80.6447-86.8363C80.3142-91.3914 77.5325-93.8711 72.6384-93.8711L39.665-93.8711C34.7779-93.8711 32.0262-91.3914 31.6587-86.8363ZM37.1241 8.87598C38.1549 8.87598 38.9869 8.35939 39.8292 7.48713L48.0578-0.547394C48.8172-1.24452 48.9813-1.56559 49.4032-2.63733L53.0048-11.8812C53.4819-13.0918 54.5567-13.4111 55.8594-12.6478L62.5365-8.72048L56.3428-3.46917C55.6354-2.86741 55.1921-2.04641 55.1921-1.15203C55.1921 0.350433 56.3097 1.60515 57.861 1.60515C58.8365 1.60515 59.5953 1.23842 60.4747 0.453729L69.2568-7.00119C70.0786-7.66128 70.3641-8.40576 70.3641-9.26309C70.3641-10.1938 69.8254-10.9635 68.7655-11.7048L59.5236-17.7535L61.2719-23.8101C61.4809-24.5545 62.2-24.6728 62.6841-23.9749L65.08-20.5602C65.857-19.46 67.1558-19.1011 68.4169-19.6548L77.0634-23.4394C78.6731-24.1547 79.2203-25.6019 78.5421-27.0357C77.8709-28.4285 76.5365-28.9491 74.8756-28.2527L68.4067-25.3923L63.9107-31.7438C61.6189-34.9962 58.6315-36.3164 54.2452-36.0048L43.7105-35.2013C42.175-35.0766 41.104-34.0072 40.8618-32.3967L39.6151-23.035C39.3476-21.232 40.2602-19.941 42.1088-19.8464C43.6191-19.7217 44.8218-20.6043 45.0159-22.3756L46.0466-29.5765L49.8549-29.7894C50.5961-29.8264 50.9998-29.3857 50.7869-28.6815L43.9693-4.63434L35.4111 3.87972C34.7077 4.56902 34.378 5.32772 34.378 6.09354C34.378 7.5597 35.5097 8.87598 37.1241 8.87598ZM62.4958-37.1004C65.8027-37.1004 68.4982-39.7841 68.4982-42.9735C68.4982-46.2991 65.8098-49.001 62.4958-49.001C59.2143-49.001 56.5676-46.2991 56.5676-42.9735C56.5676-39.7912 59.2143-37.1004 62.4958-37.1004Z"/>
  </g>
  <g id="Medium-M" transform="matrix(1 0 0 1 1690.63 1126)">
   <path d="M28.47 22.5997L84.6422 22.5997C93.9585 22.5997 99.392 17.149 99.392 6.72952L99.392-48.4959C99.392-58.9154 93.9151-64.3313 83.3829-64.3313L28.47-64.3313C17.9464-64.3313 12.4609-58.9326 12.4609-48.4959L12.4609 6.72952C12.4609 17.1662 17.9464 22.5997 28.47 22.5997ZM29.0468 13.0476C24.5098 13.0476 22.0216 10.6787 22.0216 5.93558L22.0216-47.6586C22.0216-52.4103 24.5098-54.7706 29.0468-54.7706L82.806-54.7706C87.3087-54.7706 89.8399-52.4103 89.8399-47.6586L89.8399 5.93558C89.8399 10.6787 87.3087 13.0476 84.0654 13.0476ZM23.2332-72.0911L88.2908-72.0911C87.6092-76.7593 85.2546-79.3964 80.0436-79.3964L31.489-79.3964C26.2695-79.3964 23.9668-76.7593 23.2332-72.0911ZM31.6317-86.2801L79.8923-86.2801C79.5929-90.6569 76.9885-92.9964 72.258-92.9964L39.266-92.9964C34.5441-92.9964 31.9745-90.6569 31.6317-86.2801ZM36.2242 9.03134C37.249 9.03134 38.0623 8.52263 38.8997 7.65036L47.3065-0.560894C48.0787-1.27079 48.2394-1.58358 48.6583-2.64485L52.3687-12.2482C52.8867-13.542 54.0541-13.885 55.445-13.0744L62.3705-8.9899L55.9487-3.53415C55.26-2.93687 54.8152-2.12525 54.8152-1.24962C54.8152 0.208965 55.8984 1.46408 57.4249 1.46408C58.396 1.46408 59.1453 1.09885 60.0262 0.307776L68.9851-7.30962C69.8196-7.97609 70.0893-8.70819 70.0893-9.54041C70.0893-10.4366 69.5773-11.1876 68.4953-11.9495L58.9911-18.1678L60.8193-24.5083C61.055-25.3311 61.8589-25.47 62.3854-24.6919L64.878-21.1084C65.6377-20.0126 66.9448-19.6789 68.1857-20.2311L76.9729-24.09C78.5687-24.8102 79.1351-26.215 78.4584-27.6256C77.7902-28.9997 76.4854-29.5015 74.829-28.8144L68.1616-25.8659L63.5302-32.4174C61.2192-35.7047 58.1987-37.0376 53.7427-36.7261L43.0983-35.9019C41.5894-35.7773 40.5057-34.7393 40.265-33.1206L38.9961-23.5678C38.7366-21.7994 39.6225-20.5237 41.4434-20.434C42.9335-20.3093 44.1051-21.1604 44.3006-22.9242L45.3707-30.3671L49.2934-30.5957C50.1007-30.6391 50.5546-30.1417 50.326-29.3779L43.3035-4.60885L34.5296 4.11306C33.834 4.79149 33.5122 5.54083 33.5122 6.29876C33.5122 7.7368 34.6124 9.03134 36.2242 9.03134ZM62.1074-37.8059C65.4255-37.8059 68.1451-40.5009 68.1451-43.703C68.1451-47.0542 65.4342-49.7595 62.1074-49.7595C58.8082-49.7595 56.1566-47.0542 56.1566-43.703C56.1566-40.5095 58.8082-37.8059 62.1074-37.8059Z"/>
  </g>
  <g id="Regular-M" transform="matrix(1 0 0 1 1394.59 1126)">
   <path d="M27.7789 21.4587L84.2295 21.4587C92.9712 21.4587 98.0466 16.3624 98.0466 6.30667L98.0466-49.0159C98.0466-59.0715 92.9195-64.1268 82.7286-64.1268L27.7789-64.1268C17.5986-64.1268 12.4609-59.0926 12.4609-49.0159L12.4609 6.30667C12.4609 16.3835 17.5986 21.4587 27.7789 21.4587ZM27.9035 13.6159C23.0271 13.6159 20.3144 10.9961 20.3144 5.92329L20.3144-48.5808C20.3144-53.6641 23.0271-56.2733 27.9035-56.2733L82.604-56.2733C87.4382-56.2733 90.2036-53.6641 90.2036-48.5808L90.2036 5.92329C90.2036 10.9961 87.4382 13.6159 84.1048 13.6159ZM23.0965-72.0234L87.411-72.0234C86.697-76.4782 84.5721-78.9041 79.7032-78.9041L30.8148-78.9041C25.9354-78.9041 23.8728-76.4782 23.0965-72.0234ZM31.5965-85.5546L78.911-85.5546C78.6521-89.6989 76.279-91.8555 71.7619-91.8555L38.7456-91.8555C34.239-91.8555 31.9071-89.6989 31.5965-85.5546ZM35.0504 9.23399C36.0674 9.23399 36.8562 8.73555 37.6873 7.86328L46.3266-0.578503C47.1154-1.30506 47.2716-1.60704 47.6867-2.65466L51.5391-12.7269C52.1103-14.1293 53.3987-14.5031 54.9046-13.6308L62.154-9.34133L55.4346-3.61891C54.7704-3.02747 54.3237-2.22808 54.3237-1.3769C54.3237 0.0244418 55.3618 1.28009 56.8561 1.28009C57.8213 1.28009 58.5584 0.916808 59.4413 0.117403L68.6306-7.71193C69.4818-8.38672 69.731-9.10268 69.731-9.90213C69.731-10.7533 69.2537-11.4798 68.1428-12.2687L58.2966-18.7081L60.229-25.419C60.4994-26.344 61.4139-26.5098 61.9957-25.627L64.6145-21.8234C65.3516-20.7335 66.6696-20.4326 67.884-20.9828L76.8548-24.9387C78.4326-25.6652 79.0239-27.0148 78.3491-28.3951C77.6849-29.7447 76.4187-30.222 74.7682-29.5472L67.8418-26.4837L63.0338-33.296C60.6978-36.6288 57.6343-37.9784 53.0872-37.6669L42.2998-36.8157C40.8257-36.6911 39.7253-35.6943 39.4866-34.0647L38.1888-24.2629C37.9395-22.5394 38.7907-21.2838 40.5755-21.2004C42.0392-21.0757 43.1702-21.8857 43.3676-23.6398L44.4891-31.3983L48.561-31.6475C49.4544-31.6992 49.9739-31.1279 49.7247-30.2863L42.435-4.5756L33.3797 4.41742C32.6944 5.08167 32.3829 5.81878 32.3829 6.56644C32.3829 7.96779 33.442 9.23399 35.0504 9.23399ZM61.6007-38.7261C64.9336-38.7261 67.6845-41.4358 67.6845-44.6546C67.6845-48.0391 64.9442-50.7488 61.6007-50.7488C58.2785-50.7488 55.6205-48.0391 55.6205-44.6546C55.6205-41.4464 58.2785-38.7261 61.6007-38.7261Z"/>
  </g>
  <g id="Light-M" transform="matrix(1 0 0 1 1098.96 1126)">
   <path d="M26.8549 19.4739L82.5012 19.4739C91.0719 19.4739 95.8906 14.5999 95.8906 5.21157L95.8906-49.7003C95.8906-59.0887 91.0373-63.9557 81.4966-63.9557L26.8549-63.9557C17.3419-63.9557 12.4609-59.144 12.4609-49.7003L12.4609 5.21157C12.4609 14.6553 17.3419 19.4739 26.8549 19.4739ZM26.9795 13.4619C21.47 13.4619 18.5006 10.5341 18.5006 4.91375L18.5006-49.3679C18.5006-55.0158 21.47-57.916 26.9795-57.916L81.372-57.916C86.7708-57.916 89.8785-55.0158 89.8785-49.3679L89.8785 4.91375C89.8785 10.5341 86.7708 13.4619 82.3766 13.4619ZM22.2581-72.3314L86.0935-72.3314C85.6361-75.7253 83.9048-77.7406 80.2337-77.7406L28.1455-77.7406C24.4467-77.7406 22.7777-75.7253 22.2581-72.3314ZM30.2961-84.8702L78.0554-84.8702C77.8822-88.0562 76.0053-89.8706 72.549-89.8706L35.8025-89.8706C32.3739-89.8706 30.504-88.0562 30.2961-84.8702ZM34.4002 8.03622C35.3488 8.03622 36.1033 7.53778 36.9687 6.66552L45.5737-1.72494C46.3283-2.41726 46.5359-2.80481 46.9167-3.73264L50.752-13.7706C51.3403-15.2244 52.6971-15.5982 54.2201-14.7259L61.6064-10.3509L54.8015-4.54289C54.1715-4.00278 53.7077-3.22052 53.7077-2.40356C53.7077-1.05355 54.7116 0.116545 56.1032 0.116545C57.0171 0.116545 57.7371-0.229623 58.637-1.01192L67.7751-8.80701C68.592-9.4647 68.8412-10.1293 68.8412-10.9117C68.8412-11.7286 68.3981-12.4209 67.3043-13.1756L57.2528-19.7519L59.2879-26.7365C59.5925-27.7471 60.5755-27.8787 61.1915-26.9788L64.0156-22.8672C64.7356-21.8287 65.968-21.5448 67.1311-22.0779L75.9993-25.9825C77.5086-26.6748 78.0486-27.9901 77.391-29.2849C76.7609-30.6002 75.5631-31.0433 73.964-30.3856L67.0205-27.305L62.1953-34.1516C59.9108-37.433 56.8301-38.7484 52.3856-38.4369L41.7865-37.6199C40.3466-37.4953 39.2804-36.4984 39.0588-34.9545L37.7781-25.221C37.5289-23.5319 38.3458-22.3617 39.9937-22.2442C41.406-22.1195 42.4515-22.9295 42.6661-24.598L43.7876-32.5105L47.9964-32.7597C48.924-32.7943 49.4777-32.2059 49.2285-31.313L41.9388-5.63648L32.8493 3.39077C32.164 4.0208 31.8525 4.74079 31.8525 5.48845C31.8525 6.83847 32.9116 8.03622 34.4002 8.03622ZM60.7623-39.4961C64.0438-39.4961 66.7092-42.1545 66.7092-45.339C66.7092-48.6551 64.0715-51.3135 60.7623-51.3135C57.5085-51.3135 54.8848-48.6551 54.8848-45.339C54.8848-42.1821 57.5085-39.4961 60.7623-39.4961Z"/>
  </g>
  <g id="Thin-M" transform="matrix(1 0 0 1 803.672 1126)">
   <path d="M25.6329 16.8488L80.2156 16.8488C88.5599 16.8488 93.0391 12.269 93.0391 3.76321L93.0391-50.6055C93.0391-59.1114 88.5479-63.7294 79.8672-63.7294L25.6329-63.7294C17.0025-63.7294 12.4609-59.2119 12.4609-50.6055L12.4609 3.76321C12.4609 12.3696 17.0025 16.8488 25.6329 16.8488ZM25.7574 13.2582C19.4106 13.2582 16.1018 9.92306 16.1018 3.57854L16.1018-50.4089C16.1018-56.8037 19.4106-60.0886 25.7574-60.0886L79.7426-60.0886C85.8882-60.0886 89.4485-56.8037 89.4485-50.4089L89.4485 3.57854C89.4485 9.92306 85.8882 13.2582 80.091 13.2582ZM21.1492-72.7388L84.3509-72.7388C84.233-74.7296 83.0222-76.2017 80.9352-76.2017L24.6151-76.2017C22.4779-76.2017 21.3294-74.7296 21.1492-72.7388ZM28.5762-83.9649L76.9239-83.9649C76.8638-85.8837 75.6432-87.2455 73.59-87.2455L31.91-87.2455C29.9072-87.2455 28.6483-85.8837 28.5762-83.9649ZM33.5402 6.45208C34.3983 6.45208 35.1076 5.95364 36.0182 5.08138L44.578-3.2412C45.2873-3.88825 45.5628-4.38897 45.8984-5.15837L49.7109-15.1511C50.322-16.6727 51.7693-17.0466 53.3149-16.1743L60.8822-11.6861L53.9641-5.76493C53.3794-5.2927 52.8929-4.5331 52.8929-3.76139C52.8929-2.47928 53.8516-1.42233 55.1074-1.42233C55.9535-1.42233 56.6508-1.74587 57.5734-2.50554L66.6435-10.2554C67.4152-10.8904 67.6645-11.4872 67.6645-12.2469C67.6645-13.0185 67.2666-13.6655 66.1954-14.375L55.8724-21.1323L58.0433-28.4791C58.393-29.6028 59.4666-29.6892 60.1278-28.7666L63.2236-24.2476C63.9209-23.2771 65.0402-23.0157 66.1354-23.5263L74.8677-27.3629C76.2865-28.01 76.7587-29.2801 76.1237-30.4616C75.5389-31.7318 74.4316-32.1296 72.9003-31.4945L65.9342-28.3913L61.0864-35.2831C58.8698-38.4967 55.7665-39.7668 51.4578-39.4552L41.1076-38.6835C39.7129-38.559 38.692-37.5621 38.4931-36.1313L37.235-26.4883C36.9857-24.8445 37.7574-23.7875 39.2242-23.6246C40.5687-23.5 41.501-24.31 41.7382-25.8653L42.8597-33.9814L47.2496-34.2306C48.2224-34.2426 48.8214-33.6317 48.5722-32.6708L41.2825-7.03957L32.1478 2.03293C31.4624 2.6177 31.1509 3.31506 31.1509 4.06272C31.1509 5.34486 32.21 6.45208 33.5402 6.45208ZM59.6535-40.5144C62.867-40.5144 65.4193-43.105 65.4193-46.2442C65.4193-49.4699 62.9174-52.0604 59.6535-52.0604C56.4902-52.0604 53.9116-49.4699 53.9116-46.2442C53.9116-43.1552 56.4902-40.5144 59.6535-40.5144Z"/>
  </g>
  <g id="Ultralight-M" transform="matrix(1 0 0 1 507.691 1126)">
   <path d="M25.0069 15.5042L79.0448 15.5042C87.2733 15.5042 91.5786 11.0751 91.5786 3.02137L91.5786-51.0692C91.5786-59.123 87.2729-63.6135 79.0327-63.6135L25.0069-63.6135C16.8286-63.6135 12.4609-59.2467 12.4609-51.0692L12.4609 3.02137C12.4609 11.1989 16.8286 15.5042 25.0069 15.5042ZM25.1315 13.1539C18.3558 13.1539 14.8731 9.61009 14.8731 2.89466L14.8731-50.9421C14.8731-57.7194 18.3558-61.2013 25.1315-61.2013L78.908-61.2013C85.4362-61.2013 89.2283-57.7194 89.2283-50.9421L89.2283 2.89466C89.2283 9.61009 85.4362 13.1539 78.9203 13.1539ZM20.5812-72.9474L83.4584-72.9474C83.5143-74.2196 82.5701-75.4135 81.2945-75.4135L22.8068-75.4135C21.4695-75.4135 20.5875-74.2196 20.5812-72.9474ZM27.6953-83.5013L76.3443-83.5013C76.3422-84.771 75.4578-85.9009 74.1232-85.9009L29.9163-85.9009C28.6437-85.9009 27.6978-84.771 27.6953-83.5013ZM33.0997 5.64069C33.9115 5.64069 34.5976 5.14225 35.5313 4.26999L44.0679-4.01782C44.7541-4.64168 45.0644-5.20037 45.3768-5.88862L49.1777-15.8582C49.8004-17.4146 51.294-17.7885 52.8512-16.9162L60.5113-12.37L53.5352-6.39085C52.9736-5.9534 52.4756-5.20539 52.4756-4.45686C52.4756-3.20953 53.4111-2.21054 54.5974-2.21054C55.4087-2.21054 56.0944-2.52248 57.0286-3.27057L66.064-10.9972C66.8125-11.6207 67.0617-12.1827 67.0617-12.9308C67.0617-13.6792 66.687-14.3031 65.6274-14.9893L55.1653-21.8394L57.4058-29.3717C57.7787-30.5533 58.8986-30.6165 59.583-29.6823L62.8179-24.9546C63.5036-24.0189 64.5649-23.7692 65.6253-24.2681L74.2882-28.07C75.6606-28.6939 76.098-29.9408 75.4746-31.0644C74.913-32.3113 73.852-32.686 72.3555-32.0625L65.3778-28.9477L60.5185-35.8627C58.3366-39.0415 55.2218-40.2884 50.9825-39.9768L40.7598-39.2283C39.3884-39.1038 38.3906-38.1068 38.2033-36.734L36.9568-27.1374C36.7076-25.5168 37.4561-24.5177 38.8301-24.3317C40.1398-24.207 41.0142-25.017 41.263-26.5144L42.3845-34.7349L46.8671-34.9841C47.8631-34.9845 48.4852-34.3619 48.236-33.3663L40.9464-7.75823L31.7884 1.33745C31.1031 1.89904 30.7916 2.58481 30.7916 3.33247C30.7916 4.57983 31.8507 5.64069 33.0997 5.64069ZM59.0855-41.036C62.2642-41.036 64.7586-43.5918 64.7586-46.7078C64.7586-49.8872 62.3262-52.4429 59.0855-52.4429C55.9686-52.4429 53.4132-49.8872 53.4132-46.7078C53.4132-43.6537 55.9686-41.036 59.0855-41.036Z"/>
  </g>
  <g id="Black-S" transform="matrix(1 0 0 1 2886.96 696)">
   <path d="M25 14.502L67.8711 14.502C77.4414 14.502 83.1055 8.83789 83.1055-0.732422L83.1055-43.6035C83.1055-53.1738 77.4414-58.8379 67.8711-58.8379L25-58.8379C15.4297-58.8379 9.76562-53.1738 9.76562-43.6035L9.76562-0.732422C9.76562 8.83789 15.4297 14.502 25 14.502ZM27.2461 0.341797C25 0.341797 23.9258-0.537109 23.9258-2.97852L23.9258-41.3574C23.9258-43.7988 25-44.6777 27.2461-44.6777L65.625-44.6777C67.8711-44.6777 68.9453-43.7988 68.9453-41.3574L68.9453-2.97852C68.9453-0.537109 67.8711 0.341797 65.625 0.341797ZM18.7012-64.4043L72.6074-64.4043C72.2168-68.8477 69.4824-71.7285 64.1113-71.7285L27.1973-71.7285C21.8262-71.7285 19.0918-68.8477 18.7012-64.4043ZM24.8535-78.0762L66.4551-78.0762C66.0645-82.373 63.1348-84.9121 58.6426-84.9121L32.666-84.9121C28.1738-84.9121 25.2441-82.373 24.8535-78.0762ZM33.0078-1.41602C33.8379-1.41602 34.5703-1.85547 35.2539-2.53906L40.918-8.05664C41.4551-8.54492 41.6016-8.83789 41.9434-9.7168L44.2871-15.3809C44.4824-15.9668 44.9219-16.1133 45.5566-15.7227L49.707-13.3301L45.8496-10.1074C45.2148-9.61914 44.873-8.93555 44.873-8.1543C44.873-6.78711 45.8984-5.81055 47.2168-5.81055C47.998-5.81055 48.6328-6.10352 49.3164-6.68945L55.4199-11.8164C56.0059-12.3047 56.2988-12.9395 56.2988-13.7207C56.2988-14.5996 55.7617-15.2832 55.0293-15.7715L48.9258-19.7754L49.9512-23.291C50-23.5352 50.1953-23.5352 50.3906-23.3398L51.8555-21.3867C52.5391-20.5078 53.5156-20.1172 54.5898-20.5566L60.7422-23.1934C62.0605-23.7305 62.4023-25.0488 61.8652-26.2695C61.3281-27.4414 60.1562-27.9297 58.8379-27.3438L54.6387-25.4883L51.709-29.5898C50-31.9824 47.8027-32.959 44.6777-32.7148L36.9141-32.1777C35.5957-32.0801 34.8145-31.1035 34.6191-29.8828L33.7402-23.3887C33.4961-21.8262 34.3262-20.752 35.8887-20.6543C37.1582-20.5566 38.2324-21.3867 38.3789-22.8027L39.0137-27.3926L41.5039-27.4902C41.7969-27.4902 41.8945-27.3926 41.7969-27.0996L37.3535-11.4258L31.5918-5.66406C31.0059-5.07812 30.7129-4.44336 30.7129-3.80859C30.7129-2.53906 31.7383-1.41602 33.0078-1.41602ZM50.6348-33.6426C53.1738-33.6426 55.1758-35.6934 55.1758-38.1348C55.1758-40.625 53.1738-42.7246 50.6348-42.7246C48.1445-42.7246 46.0938-40.625 46.0938-38.1348C46.0938-35.6934 48.1445-33.6426 50.6348-33.6426Z"/>
  </g>
  <g id="Heavy-S" transform="matrix(1 0 0 1 2590.87 696)">
   <path d="M24.3431 13.4763L67.6291 13.4763C76.5771 13.4763 81.8724 8.181 81.8724-1.06663L81.8724-44.099C81.8724-53.3467 76.5655-58.6305 67.2949-58.6305L24.3431-58.6305C15.0724-58.6305 9.76562-53.3467 9.76562-44.099L9.76562-1.06663C9.76562 8.181 15.0724 13.4763 24.3431 13.4763ZM26.0821 0.998692C23.5364 0.998692 22.2432-0.122229 22.2432-2.86327L22.2432-42.2909C22.2432-45.0319 23.5364-46.1528 26.0821-46.1528L65.5558-46.1528C68.1016-46.1528 69.3948-45.0319 69.3948-42.2909L69.3948-2.86327C69.3948-0.122229 68.1016 0.998692 65.8901 0.998692ZM18.6551-64.2891L71.7892-64.2891C71.3294-68.6287 68.8025-71.3251 63.6618-71.3251L26.7824-71.3251C21.6418-71.3251 19.1264-68.6287 18.6551-64.2891ZM24.9803-77.3502L65.464-77.3502C65.108-81.5087 62.3742-83.8864 57.9857-83.8864L32.4586-83.8864C28.0701-83.8864 25.3478-81.5087 24.9803-77.3502ZM31.7747-1.03571C32.6048-1.03571 33.3141-1.46364 33.9862-2.14723L39.9154-7.92987C40.4755-8.4412 40.6105-8.71112 40.9523-9.59003L43.4573-15.7842C43.7103-16.4854 44.2765-16.6665 45.038-16.2067L49.5341-13.5952L45.3541-10.0844C44.7423-9.59609 44.4005-8.92403 44.4005-8.16582C44.4005-6.85626 45.3798-5.86817 46.6752-5.86817C47.4564-5.86817 48.0796-6.16114 48.7632-6.7586L55.1318-12.1276C55.7408-12.6274 56.0107-13.2506 56.0107-13.9973C56.0107-14.8301 55.5082-15.4906 54.7412-16.0135L48.2804-20.2479L49.4095-24.1438C49.4929-24.4917 49.8035-24.5263 50.0564-24.2157L51.6365-22.0551C52.2971-21.1762 53.2966-20.8202 54.3478-21.2596L60.7191-24.0116C62.0259-24.5603 62.4023-25.8209 61.8652-27.0186C61.3281-28.1674 60.1908-28.6327 58.8725-28.0583L54.3852-26.076L51.2595-30.4657C49.516-32.9159 47.2726-33.9155 44.0323-33.6713L36.0843-33.0997C34.8005-33.002 33.9963-32.0716 33.8009-30.8278L32.8874-24.0456C32.6548-22.5292 33.4503-21.4665 34.9898-21.3803C36.2363-21.2826 37.2759-22.0667 37.4224-23.4827L38.1148-28.4068L40.7548-28.5274C41.14-28.5389 41.3068-28.3606 41.1861-27.987L36.4431-11.2529L30.3702-5.19156C29.7958-4.61714 29.5144-3.99391 29.5144-3.37066C29.5144-2.1357 30.4936-1.03571 31.7747-1.03571ZM50.1738-34.5761C52.7359-34.5761 54.784-36.6499 54.784-39.1144C54.784-41.6507 52.7359-43.7618 50.1738-43.7618C47.649-43.7618 45.5867-41.6507 45.5867-39.1144C45.5867-36.6499 47.649-34.5761 50.1738-34.5761Z"/>
  </g>
  <g id="Bold-S" transform="matrix(1 0 0 1 2294.85 696)">
   <path d="M23.6084 12.3291L67.3584 12.3291C75.6104 12.3291 80.4932 7.44629 80.4932-1.44043L80.4932-44.6533C80.4932-53.54 75.586-58.3985 66.6504-58.3985L23.6084-58.3985C14.6729-58.3985 9.76562-53.54 9.76562-44.6533L9.76562-1.44043C9.76562 7.44629 14.6729 12.3291 23.6084 12.3291ZM24.7803 1.7334C21.8994 1.7334 20.3614 0.341795 20.3614-2.73438L20.3614-43.3349C20.3614-46.4111 21.8994-47.8027 24.7803-47.8027L65.4785-47.8027C68.3594-47.8027 69.8974-46.4111 69.8974-43.3349L69.8974-2.73438C69.8974 0.341795 68.3594 1.7334 66.1865 1.7334ZM18.6036-64.1601L70.874-64.1601C70.3369-68.3838 68.042-70.874 63.1592-70.874L26.3184-70.874C21.4356-70.874 19.1651-68.3838 18.6036-64.1601ZM25.1221-76.5381L64.3555-76.5381C64.0381-80.542 61.5234-82.7393 57.251-82.7393L32.2266-82.7393C27.9541-82.7393 25.4638-80.542 25.1221-76.5381ZM30.3955-0.610354C31.2256-0.610354 31.9091-1.02539 32.5684-1.70898L38.794-7.78809C39.3799-8.3252 39.5019-8.56934 39.8438-9.44825L42.5293-16.2353C42.8466-17.0654 43.5547-17.2851 44.458-16.7481L49.3408-13.8916L44.7998-10.0586C44.2139-9.57031 43.8721-8.91114 43.8721-8.17871C43.8721-6.93359 44.7998-5.93262 46.0694-5.93262C46.8505-5.93262 47.4609-6.22559 48.1446-6.83594L54.8095-12.4756C55.4444-12.9883 55.6884-13.5986 55.6884-14.3066C55.6884-15.0879 55.2246-15.7226 54.419-16.2842L47.5586-20.7763L48.8037-25.0977C48.9258-25.5616 49.3652-25.6348 49.6826-25.1953L51.3916-22.8028C52.0264-21.9238 53.0518-21.6064 54.0772-22.0459L60.6934-24.9268C61.9873-25.4883 62.4023-26.6846 61.8652-27.8564C61.3281-28.9795 60.2294-29.4189 58.9112-28.8574L54.1016-26.7334L50.7568-31.4453C48.9746-33.9599 46.6797-34.9854 43.3106-34.7412L35.1562-34.1309C33.9111-34.0332 33.0811-33.1543 32.8857-31.8847L31.9336-24.7803C31.7138-23.3154 32.4707-22.2656 33.9844-22.1924C35.2051-22.0947 36.206-22.8272 36.3526-24.2431L37.1094-29.541L39.917-29.6875C40.4053-29.7119 40.6494-29.4434 40.5029-28.9795L35.4248-11.0596L29.0039-4.66308C28.4424-4.10156 28.1739-3.49121 28.1739-2.88085C28.1739-1.68457 29.1015-0.610354 30.3955-0.610354ZM49.6582-35.6202C52.2461-35.6202 54.3457-37.7197 54.3457-40.21C54.3457-42.7978 52.2461-44.9219 49.6582-44.9219C47.0947-44.9219 45.0196-42.7978 45.0196-40.21C45.0196-37.7197 47.0947-35.6202 49.6582-35.6202Z"/>
  </g>
  <g id="Semibold-S" transform="matrix(1 0 0 1 1998.61 696)">
   <path d="M23.1019 11.5382L67.1718 11.5382C74.9438 11.5382 79.5423 6.93975 79.5423-1.69815L79.5423-45.0354C79.5423-53.6733 74.9106-58.2385 66.2061-58.2385L23.1019-58.2385C14.3974-58.2385 9.76562-53.6733 9.76562-45.0354L9.76562-1.69815C9.76562 6.93975 14.3974 11.5382 23.1019 11.5382ZM23.8827 2.23994C20.7708 2.23994 19.0639 0.661717 19.0639-2.64551L19.0639-44.0548C19.0639-47.362 20.7708-48.9402 23.8827-48.9402L65.4252-48.9402C68.5371-48.9402 70.244-47.362 70.244-44.0548L70.244-2.64551C70.244 0.661717 68.5371 2.23994 66.3909 2.23994ZM18.568-64.0713L70.243-64.0713C69.6526-68.2149 67.5177-70.563 62.8126-70.563L25.9985-70.563C21.2934-70.563 19.1917-68.2149 18.568-64.0713ZM25.2198-75.9782L63.5912-75.9782C63.3005-79.8754 60.9369-81.9483 56.7445-81.9483L32.0666-81.9483C27.8741-81.9483 25.5438-79.8754 25.2198-75.9782ZM29.4446-0.317092C30.2747-0.317092 30.9405-0.723242 31.5908-1.40683L38.0208-7.69033C38.6245-8.24522 38.7377-8.47158 39.0795-9.35049L41.8895-16.5464C42.2512-17.4654 43.057-17.7117 44.0581-17.1213L49.2075-14.096L44.4177-10.0408C43.8495-9.55254 43.5077-8.90225 43.5077-8.1876C43.5077-6.98692 44.3999-5.97705 45.6517-5.97705C46.4329-5.97705 47.0344-6.27002 47.718-6.88926L54.5874-12.7155C55.2399-13.2371 55.4663-13.8386 55.4663-14.5199C55.4663-15.2656 55.0291-15.8826 54.1968-16.4708L47.0609-21.1407L48.386-25.7553C48.5348-26.2991 49.0631-26.3991 49.4249-25.8707L51.2227-23.3182C51.8398-22.4392 52.8829-22.1485 53.8905-22.588L60.6756-25.5578C61.9607-26.1281 62.4023-27.28 61.8652-28.4341C61.3281-29.5394 60.2561-29.961 58.9378-29.4084L53.9061-27.1866L50.4103-32.1207C48.6014-34.6798 46.2709-35.7229 42.8129-35.4788L34.5164-34.8418C33.298-34.7441 32.4501-33.9008 32.2547-32.6135L31.276-25.2868C31.0651-23.8575 31.7953-22.8166 33.2912-22.7523C34.4942-22.6546 35.4685-23.3515 35.615-24.7675L36.4162-30.3231L39.3394-30.4873C39.8988-30.5206 40.1962-30.1898 40.032-29.6638L34.7228-10.9263L28.0619-4.29873C27.5093-3.74609 27.2496-3.14463 27.2496-2.54316C27.2496-1.37353 28.1418-0.317092 29.4446-0.317092ZM49.3027-36.34C51.9084-36.34 54.0435-38.4573 54.0435-40.9654C54.0435-43.5888 51.9084-45.7216 49.3027-45.7216C46.7126-45.7216 44.6285-43.5888 44.6285-40.9654C44.6285-38.4573 46.7126-36.34 49.3027-36.34Z"/>
  </g>
  <g id="Medium-S" transform="matrix(1 0 0 1 1702.26 696)">
   <path d="M22.7178 10.9384L67.0303 10.9384C74.4385 10.9384 78.8213 6.55567 78.8213-1.89356L78.8213-45.3252C78.8213-53.7744 74.3985-58.1172 65.8692-58.1172L22.7178-58.1172C14.1885-58.1172 9.76562-53.7744 9.76562-45.3252L9.76562-1.89356C9.76562 6.55567 14.1885 10.9384 22.7178 10.9384ZM23.2022 2.62402C19.915 2.62402 18.0801 0.904294 18.0801-2.57812L18.0801-44.6006C18.0801-48.083 19.915-49.8027 23.2022-49.8027L65.3847-49.8027C68.6719-49.8027 70.5068-48.083 70.5068-44.6006L70.5068-2.57812C70.5068 0.904294 68.6719 2.62402 66.5459 2.62402ZM18.5411-64.0039L69.7646-64.0039C69.1338-68.0869 67.1201-70.3271 62.5498-70.3271L25.7559-70.3271C21.1855-70.3271 19.2119-68.0869 18.5411-64.0039ZM25.2939-75.5537L63.0118-75.5537C62.7412-79.3701 60.4922-81.3486 56.3604-81.3486L31.9453-81.3486C27.8135-81.3486 25.6045-79.3701 25.2939-75.5537ZM28.7236-0.0947278C29.5537-0.0947278 30.206-0.49414 30.8496-1.17773L37.4346-7.61621C38.0518-8.18457 38.1582-8.39746 38.5-9.27637L41.4043-16.7822C41.7998-17.7686 42.6797-18.0351 43.7549-17.4043L49.1064-14.251L44.1279-10.0274C43.5732-9.53906 43.2314-8.89551 43.2314-8.19433C43.2314-7.02735 44.0967-6.01074 45.335-6.01074C46.1162-6.01074 46.711-6.30371 47.3946-6.92969L54.4189-12.8975C55.085-13.4258 55.2978-14.0205 55.2978-14.6817C55.2978-15.4004 54.8809-16.0039 54.0283-16.6123L46.6836-21.417L48.0693-26.2539C48.2383-26.8584 48.834-26.9785 49.2295-26.3828L51.0947-23.709C51.6983-22.83 52.7549-22.5596 53.7491-22.9991L60.6621-26.0362C61.9405-26.6133 62.4023-27.7314 61.8652-28.8721C61.3281-29.9639 60.2763-30.3721 58.958-29.8262L53.7579-27.5303L50.1475-32.6328C48.3183-35.2256 45.9609-36.2822 42.4356-36.0381L34.0312-35.3809C32.833-35.2832 31.9717-34.4668 31.7763-33.166L30.7774-25.6709C30.5732-24.2686 31.2832-23.2344 32.7656-23.1768C33.9551-23.0791 34.9092-23.749 35.0557-25.165L35.8906-30.9161L38.9014-31.0938C39.5147-31.1338 39.8525-30.7558 39.6748-30.1826L34.1904-10.8252L27.3476-4.02246C26.8018-3.47656 26.5489-2.88183 26.5489-2.2871C26.5489-1.13769 27.414-0.0947278 28.7236-0.0947278ZM49.0332-36.8858C51.6524-36.8858 53.8144-39.0166 53.8144-41.5381C53.8144-44.1885 51.6524-46.3281 49.0332-46.3281C46.4228-46.3281 44.332-44.1885 44.332-41.5381C44.332-39.0166 46.4228-36.8858 49.0332-36.8858Z"/>
  </g>
  <g id="Regular-S" transform="matrix(1 0 0 1 1406.02 696)">
   <path d="M22.2168 10.1562L66.8457 10.1562C73.7793 10.1562 77.8809 6.05469 77.8809-2.14844L77.8809-45.7031C77.8809-53.9062 73.7305-57.959 65.4297-57.959L22.2168-57.959C13.916-57.959 9.76562-53.9062 9.76562-45.7031L9.76562-2.14844C9.76562 6.05469 13.916 10.1562 22.2168 10.1562ZM22.3145 3.125C18.7988 3.125 16.7969 1.2207 16.7969-2.49023L16.7969-45.3125C16.7969-49.0234 18.7988-50.9277 22.3145-50.9277L65.332-50.9277C68.8477-50.9277 70.8496-49.0234 70.8496-45.3125L70.8496-2.49023C70.8496 1.2207 68.8477 3.125 66.748 3.125ZM18.5059-63.916L69.1406-63.916C68.457-67.9199 66.6016-70.0195 62.207-70.0195L25.4395-70.0195C21.0449-70.0195 19.2383-67.9199 18.5059-63.916ZM25.3906-75L62.2559-75C62.0117-78.7109 59.9121-80.5664 55.8594-80.5664L31.7871-80.5664C27.7344-80.5664 25.6836-78.7109 25.3906-75ZM27.7832 0.195312C28.6133 0.195312 29.248-0.195312 29.8828-0.878906L36.6699-7.51953C37.3047-8.10547 37.4023-8.30078 37.7441-9.17969L40.7715-17.0898C41.2109-18.1641 42.1875-18.457 43.3594-17.7734L48.9746-14.4531L43.75-10.0098C43.2129-9.52148 42.8711-8.88672 42.8711-8.20312C42.8711-7.08008 43.7012-6.05469 44.9219-6.05469C45.7031-6.05469 46.2891-6.34766 46.9727-6.98242L54.1992-13.1348C54.8828-13.6719 55.0781-14.2578 55.0781-14.8926C55.0781-15.5762 54.6875-16.1621 53.8086-16.7969L46.1914-21.7773L47.6562-26.9043C47.8516-27.5879 48.5352-27.7344 48.9746-27.0508L50.9277-24.2188C51.5137-23.3398 52.5879-23.0957 53.5645-23.5352L60.6445-26.6602C61.9141-27.2461 62.4023-28.3203 61.8652-29.4434C61.3281-30.5176 60.3027-30.9082 58.9844-30.3711L53.5645-27.9785L49.8047-33.3008C47.9492-35.9375 45.5566-37.0117 41.9434-36.7676L33.3984-36.084C32.2266-35.9863 31.3477-35.2051 31.1523-33.8867L30.127-26.1719C29.9316-24.8047 30.6152-23.7793 32.0801-23.7305C33.252-23.6328 34.1797-24.2676 34.3262-25.6836L35.2051-31.6895L38.3301-31.8848C39.0137-31.9336 39.4043-31.4941 39.209-30.8594L33.4961-10.6934L26.416-3.66211C25.8789-3.125 25.6348-2.53906 25.6348-1.95312C25.6348-0.830078 26.4648 0.195312 27.7832 0.195312ZM48.6816-37.5977C51.3184-37.5977 53.5156-39.7461 53.5156-42.2852C53.5156-44.9707 51.3184-47.1191 48.6816-47.1191C46.0449-47.1191 43.9453-44.9707 43.9453-42.2852C43.9453-39.7461 46.0449-37.5977 48.6816-37.5977Z"/>
  </g>
  <g id="Light-S" transform="matrix(1 0 0 1 1110.26 696)">
   <path d="M21.3994 8.40037L65.3169 8.40037C72.0991 8.40037 75.9737 4.49562 75.9737-3.11718L75.9737-46.3086C75.9737-53.9214 72.0655-57.8076 64.3399-57.8076L21.3994-57.8076C13.689-57.8076 9.76562-53.9516 9.76562-46.3086L9.76562-3.11718C9.76562 4.52589 13.689 8.40037 21.3994 8.40037ZM21.4971 2.98877C17.4214 2.98877 15.1924 0.812013 15.1924-3.38329L15.1924-46.0088C15.1924-50.2192 17.4214-52.3808 21.4971-52.3808L64.2422-52.3808C68.2574-52.3808 70.562-50.2192 70.562-46.0088L70.562-3.38329C70.562 0.812013 68.2574 2.98877 65.2192 2.98877ZM17.7642-64.1885L67.9751-64.1885C67.5185-67.2539 66.0113-68.9902 62.6762-68.9902L23.0782-68.9902C19.728-68.9902 18.2696-67.2539 17.7642-64.1885ZM24.2402-74.3945L61.4991-74.3945C61.3306-77.2578 59.6699-78.8106 56.5557-78.8106L29.1836-78.8106C26.0845-78.8106 24.4424-77.2578 24.2402-74.3945ZM27.208-0.864249C27.9776-0.864249 28.582-1.25487 29.2471-1.93847L36.0039-8.53369C36.6084-9.08935 36.7514-9.36035 37.063-10.1333L40.0752-18.0131C40.5298-19.1328 41.5669-19.4258 42.7539-18.7422L48.4902-15.3462L43.1899-10.8272C42.6831-10.3843 42.3262-9.76465 42.3262-9.11131C42.3262-8.03369 43.126-7.08398 44.2559-7.08398C44.9917-7.08398 45.5625-7.36181 46.2613-7.98144L53.4424-14.1035C54.0957-14.6255 54.291-15.166 54.291-15.7857C54.291-16.439 53.9307-16.9946 53.0669-17.5991L45.2681-22.7006L46.8237-28.0698C47.0493-28.8291 47.7935-28.9453 48.2632-28.2466L50.3979-25.1421C50.9688-24.3086 51.9673-24.0796 52.8985-24.5039L59.8877-27.5835C61.0967-28.1392 61.5395-29.1831 61.0176-30.2305C60.5107-31.2744 59.5459-31.6348 58.273-31.1128L52.8379-28.7051L49.063-34.0576C47.2529-36.6489 44.8452-37.6929 41.3228-37.4487L32.9443-36.7954C31.8028-36.6977 30.9541-35.9165 30.7739-34.6738L29.7637-27.0195C29.5683-25.6826 30.2217-24.7329 31.5654-24.6538C32.6919-24.5561 33.544-25.1909 33.7056-26.5312L34.5845-32.6734L37.8306-32.8687C38.5445-32.9023 38.9653-32.4477 38.77-31.7676L33.0571-11.6319L25.9468-4.57031C25.4097-4.06347 25.1656-3.49267 25.1656-2.90673C25.1656-1.82909 25.9956-0.864249 27.208-0.864249ZM47.9399-38.2788C50.5313-38.2788 52.6528-40.3818 52.6528-42.8906C52.6528-45.5156 50.5464-47.6186 47.9399-47.6186C45.3638-47.6186 43.2944-45.5156 43.2944-42.8906C43.2944-40.397 45.3638-38.2788 47.9399-38.2788Z"/>
  </g>
  <g id="Thin-S" transform="matrix(1 0 0 1 814.813 696)">
   <path d="M20.3184 6.07814L63.2949 6.07814C69.877 6.07814 73.4512 2.43362 73.4512-4.39842L73.4512-47.1093C73.4512-53.9414 69.8633-57.6074 62.8985-57.6074L20.3184-57.6074C13.3887-57.6074 9.76562-54.0117 9.76562-47.1093L9.76562-4.39842C9.76562 2.50394 13.3887 6.07814 20.3184 6.07814ZM20.416 2.80859C15.5996 2.80859 13.0703 0.271491 13.0703-4.56443L13.0703-46.9297C13.0703-51.8007 15.5996-54.3027 20.416-54.3027L62.8008-54.3027C67.4766-54.3027 70.1816-51.8007 70.1816-46.9297L70.1816-4.56443C70.1816 0.271491 67.4766 2.80859 63.1973 2.80859ZM16.7832-64.5488L66.4336-64.5488C66.2773-66.3731 65.2305-67.6289 63.2968-67.6289L19.9551-67.6289C17.9864-67.6289 16.9883-66.3731 16.7832-64.5488ZM22.7188-73.5938L60.4981-73.5938C60.4297-75.336 59.3496-76.4883 57.4765-76.4883L25.7403-76.4883C23.9024-76.4883 22.8008-75.336 22.7188-73.5938ZM26.4473-2.2656C27.1368-2.2656 27.7012-2.65623 28.4063-3.33982L35.1231-9.87499C35.6875-10.3906 35.8906-10.7617 36.1621-11.3945L39.1543-19.2343C39.6289-20.4141 40.7461-20.707 41.9532-20.0234L47.8496-16.5273L42.4492-11.9082C41.9824-11.5253 41.6054-10.9258 41.6054-10.3125C41.6054-9.29491 42.3653-8.44529 43.375-8.44529C44.0508-8.44529 44.6016-8.70311 45.3203-9.30272L52.4414-15.3848C53.0547-15.8867 53.25-16.3672 53.25-16.9668C53.25-17.58 52.9297-18.0956 52.0859-18.6602L44.0469-23.9218L45.7227-29.6113C45.9883-30.4707 46.8125-30.5469 47.3222-29.8281L49.6973-26.3632C50.248-25.5898 51.1465-25.3808 52.0176-25.7852L58.8867-28.8047C60.0156-29.3203 60.3985-30.3242 59.8965-31.2715C59.4297-32.2754 58.5449-32.5957 57.332-32.0938L51.877-29.666L48.082-35.0586C46.3321-37.5899 43.9043-38.5938 40.502-38.3496L32.3437-37.7363C31.2422-37.6387 30.4336-36.8574 30.2734-35.7148L29.2832-28.1406C29.0879-26.8438 29.7012-25.9941 30.8847-25.875C31.9512-25.7773 32.7032-26.4121 32.8848-27.6523L33.7637-33.9746L37.17-34.1699C37.9239-34.1836 38.3848-33.709 38.1895-32.9688L32.4766-12.8731L25.3262-5.77147C24.7891-5.30467 24.545-4.75389 24.545-4.16795C24.545-3.15037 25.375-2.2656 26.4473-2.2656ZM46.959-39.1797C49.4902-39.1797 51.5118-41.2226 51.5118-43.6914C51.5118-46.2364 49.5254-48.2793 46.959-48.2793C44.4629-48.2793 42.4336-46.2364 42.4336-43.6914C42.4336-41.2578 44.4629-39.1797 46.959-39.1797Z"/>
  </g>
  <g id="Ultralight-S" transform="matrix(1 0 0 1 518.749 696)">
   <path d="M19.7647 4.88871L62.2593 4.88871C68.7388 4.88871 72.1592 1.37748 72.1592-5.05466L72.1592-47.5195C72.1592-53.9517 68.7354-57.5049 62.1602-57.5049L19.7647-57.5049C13.2349-57.5049 9.76562-54.0425 9.76562-47.5195L9.76562-5.05466C9.76562 1.4683 13.2349 4.88871 19.7647 4.88871ZM19.8623 2.71631C14.6665 2.71631 11.9834-0.00536144 11.9834-5.16941L11.9834-47.4014C11.9834-52.6108 14.6665-55.2871 19.8623-55.2871L62.0625-55.2871C67.0767-55.2871 69.9868-52.6108 69.9868-47.4014L69.9868-5.16941C69.9868-0.00536144 67.0767 2.71631 62.1617 2.71631ZM16.2808-64.7334L65.6441-64.7334C65.6416-65.9219 64.8306-66.9317 63.6147-66.9317L18.3555-66.9317C17.0943-66.9317 16.3321-65.9219 16.2808-64.7334ZM21.9395-73.1836L59.9854-73.1836C59.9683-74.3516 59.1856-75.2989 57.9482-75.2989L23.9766-75.2989C22.7847-75.2989 21.96-74.3516 21.9395-73.1836ZM26.0576-2.98337C26.7061-2.98337 27.25-3.374 27.9756-4.05759L34.6719-10.562C35.2158-11.0571 35.4497-11.4795 35.7007-12.0405L38.6826-19.8598C39.1675-21.0703 40.3257-21.3633 41.543-20.6797L47.5215-17.1323L42.0698-12.4619C41.6235-12.1098 41.2363-11.5205 41.2363-10.9277C41.2363-9.9409 41.9756-9.14255 42.9238-9.14255C43.5689-9.14255 44.1094-9.39011 44.8384-9.97947L51.9287-16.041C52.5215-16.5327 52.7168-16.9824 52.7168-17.5718C52.7168-18.1645 52.417-18.6596 51.5835-19.2036L43.4214-24.5473L45.1587-30.4009C45.4448-31.3115 46.3101-31.3672 46.8403-30.6382L49.3384-26.9887C49.8789-26.2461 50.7261-26.0473 51.5664-26.4414L58.374-29.4302C59.4619-29.9253 59.814-30.9087 59.3223-31.8047C58.876-32.7881 58.0322-33.0879 56.8501-32.5962L51.3848-30.1582L47.5796-35.5713C45.8604-38.0718 43.4224-39.0552 40.0816-38.811L32.0361-38.2182C30.9551-38.1206 30.167-37.3393 30.0171-36.248L29.0371-28.7148C28.8418-27.4385 29.4346-26.6401 30.5361-26.5005C31.5718-26.4028 32.2725-27.0376 32.4644-28.2265L33.3433-34.6411L36.8316-34.8364C37.606-34.8398 38.0874-34.355 37.8921-33.584L32.1792-13.5088L25.0083-6.3867C24.4712-5.94041 24.2271-5.39988 24.2271-4.81394C24.2271-3.82712 25.0571-2.98337 26.0576-2.98337ZM46.4566-39.6411C48.957-39.6411 50.9273-41.6533 50.9273-44.1015C50.9273-46.6055 49.0025-48.6177 46.4566-48.6177C44.0015-48.6177 41.9927-46.6055 41.9927-44.1015C41.9927-41.6987 44.0015-39.6411 46.4566-39.6411Z"/>
  </g>
 </g>
</svg>
