<?xml version="1.0" encoding="UTF-8"?>
<!--Generator: Apple Native CoreSVG 175.5-->
<!DOCTYPE svg
PUBLIC "-//W3C//DTD SVG 1.1//EN"
       "http://www.w3.org/Graphics/SVG/1.1/DTD/svg11.dtd">
<svg version="1.1" xmlns="http://www.w3.org/2000/svg" xmlns:xlink="http://www.w3.org/1999/xlink" width="3300" height="2200">
 <!--glyph: "", point size: 100.0, font version: "18.0d12e2", template writer version: "101"-->
 <style>.monochrome-0 {fill:#000000}

.SFSymbolsPreview000000 {fill:#000000;opacity:1.0}
</style>
 <g id="Notes">
  <rect height="2200" id="artboard" style="fill:white;opacity:1" width="3300" x="0" y="0"/>
  <line style="fill:none;stroke:black;opacity:1;stroke-width:0.5;" x1="263" x2="3036" y1="292" y2="292"/>
  <text style="stroke:none;fill:black;font-family:sans-serif;font-size:13;font-weight:bold;" transform="matrix(1 0 0 1 263 322)">Weight/Scale Variations</text>
  <text style="stroke:none;fill:black;font-family:sans-serif;font-size:13;text-anchor:middle;" transform="matrix(1 0 0 1 559.711 322)">Ultralight</text>
  <text style="stroke:none;fill:black;font-family:sans-serif;font-size:13;text-anchor:middle;" transform="matrix(1 0 0 1 856.422 322)">Thin</text>
  <text style="stroke:none;fill:black;font-family:sans-serif;font-size:13;text-anchor:middle;" transform="matrix(1 0 0 1 1153.13 322)">Light</text>
  <text style="stroke:none;fill:black;font-family:sans-serif;font-size:13;text-anchor:middle;" transform="matrix(1 0 0 1 1449.84 322)">Regular</text>
  <text style="stroke:none;fill:black;font-family:sans-serif;font-size:13;text-anchor:middle;" transform="matrix(1 0 0 1 1746.56 322)">Medium</text>
  <text style="stroke:none;fill:black;font-family:sans-serif;font-size:13;text-anchor:middle;" transform="matrix(1 0 0 1 2043.27 322)">Semibold</text>
  <text style="stroke:none;fill:black;font-family:sans-serif;font-size:13;text-anchor:middle;" transform="matrix(1 0 0 1 2339.98 322)">Bold</text>
  <text style="stroke:none;fill:black;font-family:sans-serif;font-size:13;text-anchor:middle;" transform="matrix(1 0 0 1 2636.69 322)">Heavy</text>
  <text style="stroke:none;fill:black;font-family:sans-serif;font-size:13;text-anchor:middle;" transform="matrix(1 0 0 1 2933.4 322)">Black</text>
  <line style="fill:none;stroke:black;opacity:1;stroke-width:0.5;" x1="263" x2="3036" y1="1903" y2="1903"/>
  <g transform="matrix(1 0 0 1 263 1933)">
   <path d="M9.24805 0.830078C13.5547 0.830078 17.1387-2.74414 17.1387-7.05078C17.1387-11.3574 13.5449-14.9316 9.23828-14.9316C4.94141-14.9316 1.36719-11.3574 1.36719-7.05078C1.36719-2.74414 4.95117 0.830078 9.24805 0.830078ZM9.24805-0.654297C5.70312-0.654297 2.87109-3.49609 2.87109-7.05078C2.87109-10.6055 5.69336-13.4473 9.23828-13.4473C12.793-13.4473 15.6445-10.6055 15.6445-7.05078C15.6445-3.49609 12.8027-0.654297 9.24805-0.654297ZM5.6543-7.05078C5.6543-6.62109 5.95703-6.32812 6.40625-6.32812L8.50586-6.32812L8.50586-4.20898C8.50586-3.76953 8.79883-3.4668 9.22852-3.4668C9.67773-3.4668 9.9707-3.76953 9.9707-4.20898L9.9707-6.32812L12.0898-6.32812C12.5293-6.32812 12.832-6.62109 12.832-7.05078C12.832-7.49023 12.5293-7.79297 12.0898-7.79297L9.9707-7.79297L9.9707-9.90234C9.9707-10.3516 9.67773-10.6543 9.22852-10.6543C8.79883-10.6543 8.50586-10.3516 8.50586-9.90234L8.50586-7.79297L6.40625-7.79297C5.95703-7.79297 5.6543-7.49023 5.6543-7.05078Z"/>
  </g>
  <g transform="matrix(1 0 0 1 281.867 1933)">
   <path d="M11.709 2.91016C17.1582 2.91016 21.6699-1.61133 21.6699-7.05078C21.6699-12.5 17.1484-17.0117 11.6992-17.0117C6.25977-17.0117 1.74805-12.5 1.74805-7.05078C1.74805-1.61133 6.26953 2.91016 11.709 2.91016ZM11.709 1.25C7.09961 1.25 3.41797-2.44141 3.41797-7.05078C3.41797-11.6602 7.08984-15.3516 11.6992-15.3516C16.3086-15.3516 20.0098-11.6602 20.0098-7.05078C20.0098-2.44141 16.3184 1.25 11.709 1.25ZM7.17773-7.05078C7.17773-6.57227 7.50977-6.25 8.00781-6.25L10.8789-6.25L10.8789-3.36914C10.8789-2.88086 11.2109-2.53906 11.6895-2.53906C12.1777-2.53906 12.5195-2.87109 12.5195-3.36914L12.5195-6.25L15.4004-6.25C15.8887-6.25 16.2305-6.57227 16.2305-7.05078C16.2305-7.53906 15.8887-7.88086 15.4004-7.88086L12.5195-7.88086L12.5195-10.752C12.5195-11.25 12.1777-11.5918 11.6895-11.5918C11.2109-11.5918 10.8789-11.25 10.8789-10.752L10.8789-7.88086L8.00781-7.88086C7.50977-7.88086 7.17773-7.53906 7.17773-7.05078Z"/>
  </g>
  <g transform="matrix(1 0 0 1 305.646 1933)">
   <path d="M14.9707 5.66406C21.9336 5.66406 27.6953-0.0976562 27.6953-7.05078C27.6953-14.0137 21.9238-19.7754 14.9609-19.7754C8.00781-19.7754 2.25586-14.0137 2.25586-7.05078C2.25586-0.0976562 8.01758 5.66406 14.9707 5.66406ZM14.9707 3.84766C8.93555 3.84766 4.08203-1.01562 4.08203-7.05078C4.08203-13.0957 8.92578-17.9492 14.9609-17.9492C21.0059-17.9492 25.8691-13.0957 25.8691-7.05078C25.8691-1.01562 21.0156 3.84766 14.9707 3.84766ZM9.19922-7.05078C9.19922-6.5332 9.57031-6.17188 10.1172-6.17188L14.0625-6.17188L14.0625-2.2168C14.0625-1.67969 14.4336-1.29883 14.9512-1.29883C15.4883-1.29883 15.8594-1.66992 15.8594-2.2168L15.8594-6.17188L19.8145-6.17188C20.3516-6.17188 20.7324-6.5332 20.7324-7.05078C20.7324-7.59766 20.3613-7.96875 19.8145-7.96875L15.8594-7.96875L15.8594-11.9141C15.8594-12.4609 15.4883-12.8418 14.9512-12.8418C14.4336-12.8418 14.0625-12.4609 14.0625-11.9141L14.0625-7.96875L10.1172-7.96875C9.57031-7.96875 9.19922-7.59766 9.19922-7.05078Z"/>
  </g>
  <text style="stroke:none;fill:black;font-family:sans-serif;font-size:13;font-weight:bold;" transform="matrix(1 0 0 1 263 1953)">Design Variations</text>
  <text style="stroke:none;fill:black;font-family:sans-serif;font-size:13;" transform="matrix(1 0 0 1 263 1971)">Symbols are supported in up to nine weights and three scales.</text>
  <text style="stroke:none;fill:black;font-family:sans-serif;font-size:13;" transform="matrix(1 0 0 1 263 1989)">For optimal layout with text and other symbols, vertically align</text>
  <text style="stroke:none;fill:black;font-family:sans-serif;font-size:13;" transform="matrix(1 0 0 1 263 2007)">symbols with the adjacent text.</text>
  <line style="fill:none;stroke:#00AEEF;stroke-width:0.5;opacity:1.0;" x1="776" x2="776" y1="1919" y2="1933"/>
  <g transform="matrix(1 0 0 1 776 1933)">
   <path d="M3.31055 0.15625C3.82812 0.15625 4.08203-0.0390625 4.26758-0.585938L5.52734-4.0332L11.2891-4.0332L12.5488-0.585938C12.7344-0.0390625 12.9883 0.15625 13.4961 0.15625C14.0137 0.15625 14.3457-0.15625 14.3457-0.644531C14.3457-0.810547 14.3164-0.966797 14.2383-1.17188L9.6582-13.3691C9.43359-13.9648 9.0332-14.2676 8.4082-14.2676C7.80273-14.2676 7.39258-13.9746 7.17773-13.3789L2.59766-1.16211C2.51953-0.957031 2.49023-0.800781 2.49023-0.634766C2.49023-0.146484 2.80273 0.15625 3.31055 0.15625ZM6.00586-5.51758L8.37891-12.0898L8.42773-12.0898L10.8008-5.51758Z"/>
  </g>
  <line style="fill:none;stroke:#00AEEF;stroke-width:0.5;opacity:1.0;" x1="793.197" x2="793.197" y1="1919" y2="1933"/>
  <text style="stroke:none;fill:black;font-family:sans-serif;font-size:13;font-weight:bold;" transform="matrix(1 0 0 1 776 1953)">Margins</text>
  <text style="stroke:none;fill:black;font-family:sans-serif;font-size:13;" transform="matrix(1 0 0 1 776 1971)">Leading and trailing margins on the left and right side of each symbol</text>
  <text style="stroke:none;fill:black;font-family:sans-serif;font-size:13;" transform="matrix(1 0 0 1 776 1989)">can be adjusted by modifying the x-location of the margin guidelines.</text>
  <text style="stroke:none;fill:black;font-family:sans-serif;font-size:13;" transform="matrix(1 0 0 1 776 2007)">Modifications are automatically applied proportionally to all</text>
  <text style="stroke:none;fill:black;font-family:sans-serif;font-size:13;" transform="matrix(1 0 0 1 776 2025)">scales and weights.</text>
  <g transform="matrix(1 0 0 1 1289 1933)">
   <path d="M2.8418 1.86523L4.54102 3.57422C5.40039 4.44336 6.38672 4.38477 7.31445 3.35938L18.0078-8.42773L17.041-9.4043L6.42578 2.27539C6.07422 2.67578 5.74219 2.77344 5.27344 2.30469L4.10156 1.14258C3.63281 0.683594 3.74023 0.341797 4.14062-0.0195312L15.6152-10.8203L14.6387-11.7871L3.04688-0.898438C2.06055 0.0195312 1.98242 0.996094 2.8418 1.86523ZM9.25781-16.3281C8.83789-15.918 8.80859-15.3418 9.04297-14.9512C9.27734-14.5898 9.73633-14.3555 10.3809-14.5215C11.8457-14.8633 13.3691-14.9219 14.7949-13.9844L14.209-12.5293C13.8672-11.6992 14.043-11.1133 14.5801-10.5664L16.875-8.25195C17.3633-7.76367 17.7734-7.74414 18.3398-7.8418L19.4043-8.03711L20.0684-7.36328L20.0293-6.80664C19.9902-6.30859 20.1172-5.92773 20.6055-5.44922L21.3672-4.70703C21.8457-4.22852 22.4609-4.19922 22.9297-4.66797L25.8398-7.58789C26.3086-8.05664 26.2891-8.65234 25.8105-9.13086L25.0391-9.89258C24.5605-10.3711 24.1895-10.5273 23.7109-10.4883L23.1348-10.4395L22.4902-11.0742L22.7344-12.1973C22.8613-12.7637 22.7051-13.2031 22.1191-13.7891L19.9219-15.9766C16.582-19.2969 12.1484-19.2188 9.25781-16.3281ZM10.752-15.957C13.1836-17.7344 16.4746-17.4316 18.7012-15.2051L21.1328-12.793C21.3672-12.5586 21.4062-12.373 21.3379-12.0312L21.0156-10.5469L22.5195-9.0625L23.5059-9.12109C23.7598-9.13086 23.8379-9.11133 24.0332-8.91602L24.6094-8.33984L22.168-5.89844L21.5918-6.47461C21.3965-6.66992 21.3672-6.74805 21.377-7.01172L21.4453-7.98828L19.9512-9.47266L18.4277-9.21875C18.1055-9.15039 17.959-9.17969 17.7148-9.41406L15.7129-11.416C15.459-11.6504 15.4297-11.8164 15.5859-12.1875L16.4648-14.2773C14.9023-15.7324 12.8711-16.3574 10.8398-15.7617C10.6836-15.7227 10.625-15.8496 10.752-15.957Z"/>
  </g>
  <text style="stroke:none;fill:black;font-family:sans-serif;font-size:13;font-weight:bold;" transform="matrix(1 0 0 1 1289 1953)">Exporting</text>
  <text style="stroke:none;fill:black;font-family:sans-serif;font-size:13;" transform="matrix(1 0 0 1 1289 1971)">Symbols should be outlined when exporting to ensure the</text>
  <text style="stroke:none;fill:black;font-family:sans-serif;font-size:13;" transform="matrix(1 0 0 1 1289 1989)">design is preserved when submitting to Xcode.</text>
  <text id="template-version" style="stroke:none;fill:black;font-family:sans-serif;font-size:13;text-anchor:end;" transform="matrix(1 0 0 1 3036 1933)">Template v.4.0</text>
  <text style="stroke:none;fill:black;font-family:sans-serif;font-size:13;text-anchor:end;" transform="matrix(1 0 0 1 3036 1951)">Requires Xcode 14 or greater</text>
  <text id="descriptive-name" style="stroke:none;fill:black;font-family:sans-serif;font-size:13;text-anchor:end;" transform="matrix(1 0 0 1 3036 1969)">Generated from figure.cycle.square.stack</text>
  <text style="stroke:none;fill:black;font-family:sans-serif;font-size:13;text-anchor:end;" transform="matrix(1 0 0 1 3036 1987)">Typeset at 100 points</text>
  <text style="stroke:none;fill:black;font-family:sans-serif;font-size:13;" transform="matrix(1 0 0 1 263 726)">Small</text>
  <text style="stroke:none;fill:black;font-family:sans-serif;font-size:13;" transform="matrix(1 0 0 1 263 1156)">Medium</text>
  <text style="stroke:none;fill:black;font-family:sans-serif;font-size:13;" transform="matrix(1 0 0 1 263 1586)">Large</text>
 </g>
 <g id="Guides">
  <g id="H-reference" style="fill:#27AAE1;stroke:none;" transform="matrix(1 0 0 1 339 696)">
   <path d="M0.993654 0L3.63775 0L29.3281-67.1323L30.0303-67.1323L30.0303-70.459L28.1226-70.459ZM11.6885-24.4799L46.9815-24.4799L46.2315-26.7285L12.4385-26.7285ZM55.1196 0L57.7637 0L30.6382-70.459L29.4326-70.459L29.4326-67.1323Z"/>
  </g>
  <line id="Baseline-S" style="fill:none;stroke:#27AAE1;opacity:1;stroke-width:0.5;" x1="263" x2="3036" y1="696" y2="696"/>
  <line id="Capline-S" style="fill:none;stroke:#27AAE1;opacity:1;stroke-width:0.5;" x1="263" x2="3036" y1="625.541" y2="625.541"/>
  <g id="H-reference" style="fill:#27AAE1;stroke:none;" transform="matrix(1 0 0 1 339 1126)">
   <path d="M0.993654 0L3.63775 0L29.3281-67.1323L30.0303-67.1323L30.0303-70.459L28.1226-70.459ZM11.6885-24.4799L46.9815-24.4799L46.2315-26.7285L12.4385-26.7285ZM55.1196 0L57.7637 0L30.6382-70.459L29.4326-70.459L29.4326-67.1323Z"/>
  </g>
  <line id="Baseline-M" style="fill:none;stroke:#27AAE1;opacity:1;stroke-width:0.5;" x1="263" x2="3036" y1="1126" y2="1126"/>
  <line id="Capline-M" style="fill:none;stroke:#27AAE1;opacity:1;stroke-width:0.5;" x1="263" x2="3036" y1="1055.54" y2="1055.54"/>
  <g id="H-reference" style="fill:#27AAE1;stroke:none;" transform="matrix(1 0 0 1 339 1556)">
   <path d="M0.993654 0L3.63775 0L29.3281-67.1323L30.0303-67.1323L30.0303-70.459L28.1226-70.459ZM11.6885-24.4799L46.9815-24.4799L46.2315-26.7285L12.4385-26.7285ZM55.1196 0L57.7637 0L30.6382-70.459L29.4326-70.459L29.4326-67.1323Z"/>
  </g>
  <line id="Baseline-L" style="fill:none;stroke:#27AAE1;opacity:1;stroke-width:0.5;" x1="263" x2="3036" y1="1556" y2="1556"/>
  <line id="Capline-L" style="fill:none;stroke:#27AAE1;opacity:1;stroke-width:0.5;" x1="263" x2="3036" y1="1485.54" y2="1485.54"/>
  <line id="left-margin-Ultralight-S" style="fill:none;stroke:#00AEEF;stroke-width:0.5;opacity:1.0;" x1="518.749" x2="518.749" y1="600.785" y2="720.121"/>
  <line id="right-margin-Ultralight-S" style="fill:none;stroke:#00AEEF;stroke-width:0.5;opacity:1.0;" x1="600.674" x2="600.674" y1="600.785" y2="720.121"/>
  <line id="left-margin-Regular-S" style="fill:none;stroke:#00AEEF;stroke-width:0.5;opacity:1.0;" x1="1406.02" x2="1406.02" y1="600.785" y2="720.121"/>
  <line id="right-margin-Regular-S" style="fill:none;stroke:#00AEEF;stroke-width:0.5;opacity:1.0;" x1="1493.67" x2="1493.67" y1="600.785" y2="720.121"/>
  <line id="left-margin-Black-S" style="fill:none;stroke:#00AEEF;stroke-width:0.5;opacity:1.0;" x1="2886.96" x2="2886.96" y1="600.785" y2="720.121"/>
  <line id="right-margin-Black-S" style="fill:none;stroke:#00AEEF;stroke-width:0.5;opacity:1.0;" x1="2979.84" x2="2979.84" y1="600.785" y2="720.121"/>
 </g>
 <g id="Symbols">
  <g id="Black-S" transform="matrix(1 0 0 1 2886.96 696)">
   <path class="monochrome-0 SFSymbolsPreview000000" d="M25 14.502L67.8711 14.502C77.4414 14.502 83.1055 8.83789 83.1055-0.732422L83.1055-43.6035C83.1055-53.1738 77.4414-58.8379 67.8711-58.8379L25-58.8379C15.4297-58.8379 9.7656-53.1738 9.7656-43.6035L9.7656-0.732422C9.7656 8.83789 15.4297 14.502 25 14.502ZM27.2461 0.341797C25 0.341797 23.9258-0.537109 23.9258-2.97852L23.9258-41.3574C23.9258-43.7988 25-44.6777 27.2461-44.6777L65.625-44.6777C67.8711-44.6777 68.9453-43.7988 68.9453-41.3574L68.9453-2.97852C68.9453-0.537109 67.8711 0.341797 65.625 0.341797L27.2461 0.341797ZM34.9224-7.09374C39.6285-7.09374 43.462-10.9273 43.462-15.6519C43.462-20.3765 39.6285-24.2008 34.9224-24.2008C30.1978-24.2008 26.3643-20.3765 26.3643-15.6519C26.3643-10.9273 30.1978-7.09374 34.9224-7.09374ZM18.7012-64.4043L72.6074-64.4043C72.2168-68.8477 69.4824-71.7285 64.1113-71.7285L27.1973-71.7285C21.8262-71.7285 19.0918-68.8477 18.7012-64.4043ZM46.3952-13.5634C47.3327-13.5634 48.0938-14.3246 48.0938-15.2621L48.0938-22.8734C48.0938-23.2726 47.9453-23.6717 47.6297-24.0152L43.7405-28.3592C43.5827-28.5448 43.7034-28.8047 43.9354-28.8047L48.6879-28.8047C49.152-28.8047 49.2727-28.5356 49.2727-28.1643L49.2727-24.405C49.2727-23.4768 50.0338-22.7064 50.9713-22.7064L57.0697-22.7064C57.9979-22.7064 58.7498-23.4768 58.7498-24.405C58.7498-25.3332 57.9979-26.1036 57.0697-26.1036L52.67-26.1036L52.67-31.2552C52.67-33.0653 51.2405-34.4947 49.4398-34.4947L42.0233-34.4947C40.3896-34.4947 38.9694-33.5201 38.3383-32.0349C37.7163-30.5312 38.0784-28.8419 39.2015-27.6909L44.7058-22.1587L44.7058-15.2621C44.7058-14.3246 45.467-13.5634 46.3952-13.5634ZM34.9224-9.87839C31.7108-9.87839 29.1489-12.4403 29.1489-15.6519C29.1489-18.8543 31.7108-21.4068 34.9224-21.4068C38.1248-21.4068 40.6774-18.8543 40.6774-15.6519C40.6774-12.4403 38.1248-9.87839 34.9224-9.87839ZM24.8535-78.0762L66.4551-78.0762C66.0645-82.373 63.1348-84.9121 58.6426-84.9121L32.666-84.9121C28.1738-84.9121 25.2441-82.373 24.8535-78.0762ZM61.7201-19.9217C62.8988-18.8728 63.6413-17.3691 63.6413-15.6519C63.6413-12.4403 61.0795-9.87839 57.8773-9.87839C54.6749-9.87839 52.1223-12.4403 52.1223-15.6519C52.1223-16.4687 52.2801-17.2206 52.5771-17.926C53.0227-18.9471 52.5121-19.7082 51.8531-19.9495C51.2405-20.1723 50.4515-19.9681 50.0802-19.1327C49.5975-18.056 49.3284-16.8679 49.3284-15.6519C49.3284-10.9273 53.1619-7.09374 57.8773-7.09374C62.6018-7.09374 66.4354-10.9273 66.4354-15.6519C66.4354-18.2138 65.2936-20.5065 63.5021-22.0752C62.7874-22.6878 61.9429-22.5207 61.4787-22.0195C61.0054-21.4997 60.9217-20.6457 61.7201-19.9217ZM57.4131-30.1507C59.316-30.1507 60.8753-31.7008 60.8753-33.6222C60.8753-35.525 59.316-37.0937 57.4131-37.0937C55.4824-37.0937 53.9323-35.525 53.9323-33.6222C53.9323-31.7008 55.4824-30.1507 57.4131-30.1507Z"/>
  </g>
  <g id="Regular-S" transform="matrix(1 0 0 1 1406.02 696)">
   <path class="monochrome-0 SFSymbolsPreview000000" d="M22.2168 10.1562L66.8457 10.1562C73.7793 10.1562 77.8809 6.05469 77.8809-2.14844L77.8809-45.7031C77.8809-53.9062 73.7305-57.959 65.4297-57.959L22.2168-57.959C13.916-57.959 9.7656-53.9062 9.7656-45.7031L9.7656-2.14844C9.7656 6.05469 13.916 10.1562 22.2168 10.1562ZM22.3145 3.125C18.7988 3.125 16.7969 1.2207 16.7969-2.49023L16.7969-45.3125C16.7969-49.0234 18.7988-50.9277 22.3145-50.9277L65.332-50.9277C68.8477-50.9277 70.8496-49.0234 70.8496-45.3125L70.8496-2.49023C70.8496 1.2207 68.8477 3.125 66.748 3.125L22.3145 3.125ZM30.0882-5.95122C35.7564-5.95122 40.3706-10.5654 40.3706-16.257C40.3706-21.9486 35.7564-26.5394 30.0882-26.5394C24.3966-26.5394 19.7824-21.9486 19.7824-16.257C19.7824-10.5654 24.3966-5.95122 30.0882-5.95122ZM18.5059-63.916L69.1406-63.916C68.457-67.9199 66.6016-70.0195 62.207-70.0195L25.4395-70.0195C21.0449-70.0195 19.2383-67.9199 18.5059-63.916ZM43.6497-13.4463C44.6803-13.4463 45.5235-14.2895 45.5235-15.3201L45.5235-24.7124C45.5235-25.1575 45.3595-25.5791 45.0082-25.9538L40.113-31.4112C39.8085-31.7626 40.0193-32.2544 40.4877-32.2544L46.4838-32.2544C47.2099-32.2544 47.4441-31.7391 47.4441-31.2239L47.4441-26.5862C47.4441-25.5791 48.2639-24.7359 49.2945-24.7359L56.813-24.7359C57.8436-24.7359 58.6634-25.5791 58.6634-26.5862C58.6634-27.6168 57.8436-28.46 56.813-28.46L51.1683-28.46L51.1683-35.0417C51.1683-37.1497 49.5053-38.8127 47.4207-38.8127L38.2626-38.8127C36.342-38.8127 34.6556-37.665 33.9295-35.9083C33.2034-34.1516 33.625-32.1607 34.9366-30.8023L41.7994-23.9161L41.7994-15.3201C41.7994-14.2895 42.6426-13.4463 43.6497-13.4463ZM30.0882-8.879C26.0128-8.879 22.7102-12.1815 22.7102-16.257C22.7102-20.3091 26.0128-23.6116 30.0882-23.6116C34.1403-23.6116 37.4428-20.3091 37.4428-16.257C37.4428-12.1815 34.1403-8.879 30.0882-8.879ZM25.3906-75L62.2559-75C62.0117-78.7109 59.9121-80.5664 55.8594-80.5664L31.7871-80.5664C27.7344-80.5664 25.6836-78.7109 25.3906-75ZM62.1299-21.7144C63.629-20.3793 64.5893-18.4353 64.5893-16.257C64.5893-12.1815 61.2867-8.879 57.2346-8.879C53.1826-8.879 49.8801-12.1815 49.8801-16.257C49.8801-17.2876 50.0908-18.2713 50.4656-19.1614C50.934-20.2622 50.4188-21.0586 49.7161-21.3162C49.0603-21.5505 48.2405-21.3396 47.8423-20.4496C47.2568-19.138 46.9288-17.7326 46.9288-16.257C46.9288-10.5654 51.5431-5.95122 57.2346-5.95122C62.9262-5.95122 67.5404-10.5654 67.5404-16.257C67.5404-19.3488 66.1584-22.0892 64.0036-23.9864C63.2308-24.6422 62.3641-24.4782 61.8723-23.9395C61.3569-23.3774 61.2867-22.4874 62.1299-21.7144ZM57.141-33.8003C59.3661-33.8003 61.193-35.6038 61.193-37.8758C61.193-40.1009 59.3661-41.9512 57.141-41.9512C54.8456-41.9512 53.0421-40.1009 53.0421-37.8758C53.0421-35.6038 54.8456-33.8003 57.141-33.8003Z"/>
  </g>
  <g id="Ultralight-S" transform="matrix(1 0 0 1 518.749 696)">
   <path class="monochrome-0 SFSymbolsPreview000000" d="M19.7647 4.88871L62.2593 4.88871C68.7388 4.88871 72.1592 1.37748 72.1592-5.05466L72.1592-47.5195C72.1592-53.9517 68.7354-57.5049 62.1602-57.5049L19.7647-57.5049C13.2349-57.5049 9.7656-54.0425 9.7656-47.5195L9.7656-5.05466C9.7656 1.4683 13.2349 4.88871 19.7647 4.88871ZM19.8623 2.71631C14.6665 2.71631 11.9834-0.0053614 11.9834-5.16941L11.9834-47.4014C11.9834-52.6108 14.6665-55.2871 19.8623-55.2871L62.0625-55.2871C67.0767-55.2871 69.9868-52.6108 69.9868-47.4014L69.9868-5.16941C69.9868-0.0053614 67.0767 2.71631 62.1617 2.71631L19.8623 2.71631ZM26.9252-7.44283C32.5348-7.44283 36.8725-11.73 36.8725-17.3415C36.8725-22.9278 32.5348-27.2888 26.9252-27.2888C21.339-27.2888 17.0518-22.9278 17.0518-17.3415C17.0518-11.73 21.339-7.44283 26.9252-7.44283ZM16.2808-64.7334L65.6441-64.7334C65.6416-65.9219 64.8306-66.9317 63.6147-66.9317L18.3555-66.9317C17.0943-66.9317 16.3321-65.9219 16.2808-64.7334ZM40.7232-14.4124C41.7913-14.4124 42.6675-15.2633 42.6675-16.3567L42.6675-26.2823C42.6675-26.7223 42.5028-27.1604 42.1208-27.5695L36.9778-33.3387C36.6754-33.6954 36.8945-34.2149 37.3869-34.2149L43.6795-34.2149C44.4452-34.2149 44.6914-33.6682 44.6914-33.1468L44.6914-28.2519C44.6914-27.1604 45.5657-26.3094 46.6591-26.3094L54.5898-26.3094C55.6579-26.3094 56.5322-27.1604 56.5322-28.2519C56.5322-29.32 55.6579-30.2215 54.5898-30.2215L48.6287-30.2215L48.6287-37.1674C48.6287-39.3579 46.8781-41.1085 44.6643-41.1085L35.0102-41.1085C32.9862-41.1085 31.2338-39.9046 30.4428-38.096C29.6771-36.2116 30.09-34.1063 31.5091-32.6834L38.7555-25.4351L38.7555-16.3567C38.7555-15.2633 39.6317-14.4124 40.7232-14.4124ZM26.9252-8.63963C22.1517-8.63963 18.2234-12.5427 18.2234-17.3415C18.2234-22.1384 22.1517-26.0667 26.9252-26.0667C31.7222-26.0667 35.6505-22.1384 35.6505-17.3415C35.6505-12.5427 31.7222-8.63963 26.9252-8.63963ZM21.9395-73.1836L59.9854-73.1836C59.9683-74.3516 59.1856-75.2989 57.9482-75.2989L23.9766-75.2989C22.7847-75.2989 21.96-74.3516 21.9395-73.1836ZM60.2719-23.7923C61.9839-22.2199 63.1725-19.9164 63.1725-17.3415C63.1725-12.5427 59.2442-8.63963 54.4726-8.63963C49.6756-8.63963 45.7726-12.5427 45.7726-17.3415C45.7726-18.5358 46.0168-19.7517 46.4764-20.7831C46.6659-21.3521 46.5988-21.6187 46.1884-21.791C45.8575-21.9362 45.6143-21.8434 45.4053-21.4177C44.8782-20.0996 44.5739-18.8244 44.5739-17.3415C44.5739-11.73 48.861-7.44283 54.4726-7.44283C60.0588-7.44283 64.3713-11.73 64.3713-17.3415C64.3713-20.3944 63.0979-22.914 60.9793-24.8097C60.5884-25.1153 60.3162-25.1021 60.0238-24.8059C59.7548-24.5078 59.7996-24.2085 60.2719-23.7923ZM55.0203-35.855C57.3718-35.855 59.3123-37.7936 59.3123-40.1489C59.3123-42.5004 57.3718-44.4428 55.0203-44.4428C52.6631-44.4428 50.7245-42.5004 50.7245-40.1489C50.7245-37.7936 52.6631-35.855 55.0203-35.855Z"/>
  </g>
 </g>
</svg>
